<svg version="1" xmlns="http://www.w3.org/2000/svg" width="666.667" height="666.667" viewBox="0 0 500.000000 500.000000"><path d="M186.4 16.9c-16.8 6.1-26.2 20.8-26.2 41.3 0 9.5.5 11.1 13.3 46.3 16 44 20.5 61.1 20.1 75.5-.3 9.7-1.8 13.5-6.9 17.4-2.8 2.2-8.4 5-12.2 6.3-5 1.6-24.1 6.2-28 6.7-2.7.4-7.7 1.1-11 1.6s-8 1.1-10.5 1.4c-4.1.5-7.2.7-23.5 2.1-8.8.8-30.5 1.6-50.2 1.9-17.7.3-19.3.5-22.2 2.5-7 5-9.2 11.7-6.7 20.3 1.6 5.5 6.2 11 10.1 12.1 3 .9 21.9 2 73 4.2 5.5.2 15 .7 21 .9 6.1.3 16.9.8 24 1.1 7.2.3 19.3.8 27 1.1 40.7 1.7 64.9 1.9 70.9.5 12.2-2.9 25.4-13.3 31.2-24.6 2.8-5.6 2.9-6.3 2.9-19.9 0-7.8-.3-16.4-.7-19.1-1.7-11.3-8.5-32.6-43.7-135.9-3.4-9.8-7.6-20.6-9.3-24-4.4-8.3-14.1-17.8-20.3-20-6.3-2.1-15.7-2-22.1.3zM312.3 33.1c-3.7 1.1-8.3 6.1-8.4 9.2 0 1.2-.2 4.9-.4 8.2-.2 3.3-.6 12.7-.9 20.8-.4 8.2-.9 18.8-1.2 23.5-.4 8.6-.6 12.5-2.1 49.2-.4 10.2-.7 26.6-.8 36.5 0 17.1.1 18.2 2.5 23 2.9 6.1 11 14.4 16.5 17 6.5 3 24.7 2.6 37-.9 2.8-.8 6.8-2 9-2.6 2.2-.6 4.7-1.4 5.5-1.7.8-.3 2-.7 2.7-.9 1.2-.2 75.4-25.1 83.2-27.9 15.6-5.6 23.4-14.2 23.5-26 .1-15.4-12.2-26.5-29.9-27.2-7.4-.2-9.2.1-21.1 4.2-7.1 2.5-13.6 4.8-14.4 5.2-.8.3-1.9.7-2.5.9-.5.2-6.6 2.3-13.5 4.7-19.8 6.8-27.1 8.7-37.1 9.2-6.3.3-12.3-1.4-14.5-4.2-5.7-7-10.9-28.3-12.9-52.8-.4-4.4-.9-9.6-1.1-11.5-.2-1.9-.6-13.8-.9-26.3-.6-25.1-.8-26.2-7-29.1-3.6-1.8-6.4-1.9-11.2-.5z"/><path d="M362.5 103.9c-8.7 4-12.5 10.2-12.1 19.3.9 17.4 21.8 25.4 33.9 13 11.9-12.2 4.6-32.3-12.3-33.7-4-.4-6.6 0-9.5 1.4zM138.7 136.1c-12.1 2.7-20.7 13.7-20.8 26.4-.2 20.1 20.2 33.6 38.3 25.2 10.2-4.7 16-13.6 16.1-24.7.1-17.9-16-30.8-33.6-26.9zM441.5 227c-4.4 1-9.5 2.1-11.4 2.4-1.8.4-3.6.8-4 1-.3.2-2.2.7-4.1 1-1.9.3-6.6 1.2-10.5 2.1-3.8.9-7.7 1.8-8.5 2-20.5 4.6-35.7 8-40.5 9-17.7 3.9-28.4 6.9-32.1 9-8.9 5.2-14.2 15.3-13 24.7 1.5 11.3 4.9 17.6 26.3 50 7 10.6 13 19.7 13.2 20.3.2.5.7 1.2 1 1.5.3.3 3.7 5.2 7.5 10.9 8.9 13.4 10.9 15.6 16.3 18.8 14.4 8.4 30.5-3.9 29.1-22.2-.7-7.5-2.9-12-14.3-28-20.9-29.3-27.1-43-22.5-49.9 2.3-3.6 7.1-7.1 16.2-11.7 6.9-3.5 21.6-9.7 24.3-10.3.6-.2 7.5-2.3 15.5-4.9 8-2.5 17.1-5.3 20.3-6.2 9.3-2.6 12.4-7.4 9.2-14.4-1.6-3.7-6-7.2-8.7-7-.7.1-4.9 1-9.3 1.9z"/><path d="M394.2 278.4c-4.6 3-6.3 5.9-6.9 11.9-1.8 17.3 21.2 24 29.3 8.5 1.9-3.7 1.8-10.7-.4-14.8-3.8-7.2-15.1-10.1-22-5.6zM268.5 282.5c-8.8 2.4-18.8 6.5-25 10.2-28.1 17.2-100.2 65.7-106.1 71.5-13.6 13.2-14.2 28.8-1.8 41.3 5.7 5.6 13.4 8.6 22.5 8.6 12.8.1 17.2-2 42.7-19.9 30.6-21.5 42.3-28.6 54.1-32.5 7.8-2.6 13.9-2.7 17.7-.3 7.9 5.3 20.6 28.6 30.6 56.6 2.9 8.1 10.7 32.7 12.3 38.5 4 14.8 6.8 23.1 8.4 24.6 6.5 6.1 17 4.9 22.8-2.7 3.8-5.1 4.1-2.9-6.3-50.4-2.5-11.3-6.1-27.7-8.1-36.5-1.9-8.8-3.6-16.7-3.8-17.5-.2-.8-2-8.7-4-17.5s-3.8-16.7-4-17.5c-.2-.8-1.1-4.7-2-8.5-.9-3.9-1.8-7.7-2-8.5-2.7-12.3-5.3-19.9-8.5-24.5-9.1-13.2-24.5-19.1-39.5-15z"/><path d="M246.5 381.8c-5.6 2.6-9.1 6.1-11.5 11.3-9.2 20.3 13.4 39.9 32.3 27.9 6.5-4.1 10-10.5 10-18.3.1-12.6-7.9-21.2-20.4-22.3-5-.4-7.3-.1-10.4 1.4z"/></svg>