<svg xmlns="http://www.w3.org/2000/svg" viewBox="0 0 504 504"><defs><style>.cls-1{fill:none;}.cls-2{fill:#ffdd25;}.cls-3{fill:#333;}.cls-4{fill:#1976d2;}.cls-5{fill:#aaa;}</style></defs><title>icon-color</title><g id="Layer_2" data-name="Layer 2"><g id="Layer_1-2" data-name="Layer 1"><g id="icon-color"><rect class="cls-1" width="504" height="504"/><g id="Canvas"><g id="Component"><g id="Union"><path id="path0_fill" data-name="path0 fill" class="cls-2" d="M21.62,235.59c0-10.62,8.85-15.31,13.28-16.33,48.36.68,147.73-3.47,158.36-25.52,8.13-16.87-5.75-54.54-18.67-89.6-4-10.76-7.84-21.27-11-30.86-7-21.44,1.43-50.63,27.58-57.17s38.14,17.35,42.91,28.58c0,0,47,135.77,49,149s4.09,33.69-1,42.88-17.37,25.52-39.84,26.54c-18,.82-145.76-5.1-207.4-8.17C30.47,254,21.62,248.66,21.62,235.59Z"/><path id="path1_fill" data-name="path1 fill" class="cls-2" d="M146.26,191.7a27.56,27.56,0,1,0-27.59-27.56A27.57,27.57,0,0,0,146.26,191.7Z"/></g><g id="Union-2" data-name="Union"><path id="path2_fill" data-name="path2 fill" class="cls-3" d="M339.74,488.51c-8.36,2.24-13.92-3.73-15.66-7-9.66-38.15-33.87-115.38-53.47-119.08-15-2.83-41.73,16-66.6,33.56-7.63,5.38-15.09,10.64-22,15.12-15.41,10-40.16,9.55-50.82-9.63s5.62-33.63,13.46-39.75c0,0,97-65.55,107-70s25.66-10.31,34-8.23,23.75,8.27,29.29,25.72c4.43,14,26.7,115.63,37.28,164.72C352.34,477.68,350,485.76,339.74,488.51Z"/><path id="path3_fill" data-name="path3 fill" class="cls-3" d="M278.91,399.8A22.46,22.46,0,1,0,263,427.29,22.46,22.46,0,0,0,278.91,399.8Z"/></g><g id="Union-3" data-name="Union"><path id="path4_fill" data-name="path4 fill" class="cls-4" d="M320.78,32.45c7.78,0,11.22,6.44,12,9.67-.5,35.19,2.54,107.51,18.7,115.24,12.36,5.92,40-4.19,65.64-13.59,7.88-2.89,15.58-5.7,22.61-8,15.71-5.07,37.09,1,41.88,20.07s-12.71,27.76-20.94,31.23c0,0-99.47,34.2-109.19,35.69s-24.68,3-31.41-.74-18.7-12.64-19.44-29C300,180,304.32,87,306.57,42.11,307.31,38.89,311.2,32.45,320.78,32.45Z"/><path id="path5_fill" data-name="path5 fill" class="cls-4" d="M352.93,123.15a20.19,20.19,0,1,0,20.19-20.07A20.13,20.13,0,0,0,352.93,123.15Z"/></g><g id="Union-4" data-name="Union"><path id="path6_fill" data-name="path6 fill" class="cls-5" d="M464,236c1.58,5.9-2.61,9.81-4.91,11-26.82,6.78-81.11,23.78-83.69,37.6-2,10.57,11.3,29.44,23.66,47,3.79,5.39,7.5,10.65,10.65,15.52,7,10.87,6.75,28.33-6.73,35.83s-23.66-4-28-9.53c0,0-46.19-68.45-49.29-75.51s-7.27-18.1-5.82-24,5.8-16.74,18.06-20.63c9.81-3.11,81.29-18.73,115.81-26.14C456.35,227.08,462,228.72,464,236Z"/><path id="path7_fill" data-name="path7 fill" class="cls-5" d="M401.65,278.79A15.85,15.85,0,1,0,421,290,15.81,15.81,0,0,0,401.65,278.79Z"/></g></g></g></g></g></g></svg>