<svg xmlns="http://www.w3.org/2000/svg" viewBox="0 0 500 500"><defs><style>.cls-1{fill:none;}.cls-2{fill:#333;}</style></defs><title>icon-black</title><g id="Layer_2" data-name="Layer 2"><g id="Layer_1-2" data-name="Layer 1"><g id="icon-black"><rect class="cls-1" width="500" height="500"/><g id="Canvas"><g id="Component"><g id="Union"><path id="path0_fill" data-name="path0 fill" class="cls-2" d="M21.44,233.72c0-10.53,8.78-15.19,13.18-16.2,48,.68,146.56-3.44,157.1-25.32,8.07-16.74-5.71-54.11-18.52-88.89-3.93-10.67-7.78-21.1-10.87-30.61-6.92-21.27,1.42-50.23,27.37-56.71s37.84,17.22,42.57,28.36c0,0,46.62,134.69,48.65,147.86s4.05,33.42-1,42.54-17.23,25.32-39.53,26.33c-17.84.81-144.6-5.06-205.75-8.1C30.23,252,21.44,246.69,21.44,233.72Z"/><path id="path1_fill" data-name="path1 fill" class="cls-2" d="M145.1,190.18a27.34,27.34,0,1,0-27.37-27.34A27.35,27.35,0,0,0,145.1,190.18Z"/></g><g id="Union-2" data-name="Union"><path id="path2_fill" data-name="path2 fill" class="cls-2" d="M337,484.63c-8.29,2.22-13.81-3.7-15.53-6.94-9.58-37.85-33.6-114.46-53-118.14-14.88-2.81-41.39,15.89-66.07,33.29-7.57,5.34-15,10.56-21.81,15-15.28,9.92-39.84,9.47-50.41-9.56s5.58-33.37,13.35-39.43c0,0,96.21-65,106.14-69.4s25.45-10.23,33.7-8.17,23.56,8.21,29.06,25.52c4.4,13.85,26.49,114.71,37,163.42C349.54,473.89,347.25,481.9,337,484.63Z"/><path id="path3_fill" data-name="path3 fill" class="cls-2" d="M276.7,396.63a22.28,22.28,0,1,0-15.76,27.27A22.29,22.29,0,0,0,276.7,396.63Z"/></g><g id="Union-3" data-name="Union"><path id="path4_fill" data-name="path4 fill" class="cls-2" d="M318.23,32.19c7.72,0,11.13,6.39,11.87,9.59-.49,34.91,2.52,106.65,18.55,114.32,12.26,5.87,39.64-4.15,65.12-13.48,7.82-2.86,15.46-5.66,22.43-7.91,15.58-5,36.8,1,41.55,19.91s-12.61,27.54-20.77,31c0,0-98.68,33.93-108.32,35.4s-24.48,3-31.16-.74-18.55-12.54-19.29-28.77c-.59-13,3.71-105.23,5.94-149.73C304.88,38.58,308.73,32.19,318.23,32.19Z"/><path id="path5_fill" data-name="path5 fill" class="cls-2" d="M350.13,122.17a20,20,0,1,0,20-19.91A20,20,0,0,0,350.13,122.17Z"/></g><g id="Union-4" data-name="Union"><path id="path6_fill" data-name="path6 fill" class="cls-2" d="M460.3,234.1c1.57,5.85-2.59,9.74-4.87,10.95-26.61,6.72-80.46,23.59-83,37.3-2,10.49,11.21,29.21,23.47,46.62,3.76,5.35,7.44,10.57,10.57,15.39,7,10.79,6.7,28.1-6.67,35.54s-23.47-4-27.74-9.45c0,0-45.82-67.9-48.9-74.91s-7.22-18-5.77-23.77,5.75-16.61,17.92-20.47c9.74-3.09,80.65-18.58,114.89-25.94C452.73,225.28,458.36,226.9,460.3,234.1Z"/><path id="path7_fill" data-name="path7 fill" class="cls-2" d="M398.46,276.58a15.72,15.72,0,1,0,19.19,11.14A15.68,15.68,0,0,0,398.46,276.58Z"/></g></g></g></g></g></g></svg>