<svg xmlns="http://www.w3.org/2000/svg" viewBox="0 0 1147 256"><defs><style>.cls-1{fill:#fff;}</style></defs><title>logo-white-header</title><g id="Layer_2" data-name="Layer 2"><g id="Layer_1-2" data-name="Layer 1"><g id="Canvas"><g id="Component"><g id="Union"><path id="path0_fill" data-name="path0 fill" class="cls-1" d="M0,119.14c0-5.73,4.8-8.27,7.21-8.82,26.24.37,80.16-1.87,85.92-13.78C97.54,87.42,90,67.08,83,48.14c-2.15-5.81-4.25-11.49-5.94-16.67C73.27,19.9,77.83,4.13,92,.6S112.71,10,115.3,16c0,0,25.5,73.33,26.61,80.5s2.22,18.19-.55,23.16-9.42,13.78-21.62,14.33c-9.76.44-79.08-2.76-112.53-4.41C4.8,129.06,0,126.2,0,119.14Z"/><path id="path1_fill" data-name="path1 fill" class="cls-1" d="M67.63,95.43a14.89,14.89,0,1,0-15-14.89A14.93,14.93,0,0,0,67.63,95.43Z"/></g><g id="Union-2" data-name="Union"><path id="path2_fill" data-name="path2 fill" class="cls-1" d="M172.6,255.74a7.53,7.53,0,0,1-8.49-3.78c-5.24-20.6-18.38-62.31-29-64.31-8.14-1.53-22.64,8.65-36.13,18.12-4.14,2.91-8.19,5.75-11.93,8.16-8.36,5.4-21.79,5.16-27.57-5.2s3.05-18.17,7.3-21.47c0,0,52.62-35.4,58.05-37.78s13.92-5.57,18.43-4.45,12.89,4.47,15.89,13.89c2.41,7.54,14.49,62.45,20.23,89C179.44,249.89,178.19,254.25,172.6,255.74Z"/><path id="path3_fill" data-name="path3 fill" class="cls-1" d="M139.6,207.82A12.18,12.18,0,1,0,131,222.67,12.19,12.19,0,0,0,139.6,207.82Z"/></g><g id="Union-3" data-name="Union"><path id="path4_fill" data-name="path4 fill" class="cls-1" d="M162.32,9.42a6.74,6.74,0,0,1,6.49,5.22c-.27,19,1.38,58.06,10.14,62.24,6.71,3.2,21.68-2.26,35.61-7.34,4.28-1.56,8.46-3.08,12.27-4.31,8.52-2.74,20.13.56,22.72,10.84s-6.9,15-11.36,16.86c0,0-54,18.47-59.24,19.27s-13.39,1.61-17-.4S151.77,105,151.36,96.15c-.32-7.07,2-57.29,3.25-81.51C155,12.9,157.12,9.42,162.32,9.42Z"/><path id="path5_fill" data-name="path5 fill" class="cls-1" d="M179.76,58.41a11,11,0,1,0,11-10.84A10.9,10.9,0,0,0,179.76,58.41Z"/></g><g id="Union-4" data-name="Union"><path id="path6_fill" data-name="path6 fill" class="cls-1" d="M240,119.34a5.26,5.26,0,0,1-2.66,6c-14.55,3.66-44,12.84-45.41,20.31-1.07,5.71,6.13,15.9,12.84,25.38,2.06,2.91,4.07,5.75,5.78,8.38,3.82,5.87,3.66,15.3-3.65,19.35s-12.84-2.16-15.17-5.14c0,0-25.06-37-26.74-40.78S161,143,161.83,139.85s3.14-9,9.8-11.14c5.32-1.68,44.11-10.11,62.83-14.12C235.87,114.54,239,115.43,240,119.34Z"/><path id="path7_fill" data-name="path7 fill" class="cls-1" d="M206.19,142.47a8.56,8.56,0,1,0,10.5,6.06A8.53,8.53,0,0,0,206.19,142.47Z"/></g></g></g><path class="cls-1" d="M309.66,172.14H281V68.61h51.11A56.91,56.91,0,0,1,346,70.3a35.49,35.49,0,0,1,11.88,5.32A26.58,26.58,0,0,1,366.15,85,29.3,29.3,0,0,1,369.22,99a27.49,27.49,0,0,1-2.71,12,35.48,35.48,0,0,1-7.22,10.07,41.31,41.31,0,0,1-22.49,11.18q2.82,4.75,5.88,9t6.21,7.94q3.14,3.7,6.24,6.83t5.92,5.72a116.61,116.61,0,0,0,13.14,10.42H338.47a59.22,59.22,0,0,1-8.23-9.85,86.88,86.88,0,0,1-6.68-12.11,71.21,71.21,0,0,1-5.16-16.72h-8.74ZM340.13,99q0-10.42-5.09-15.31t-15.27-4.89H309.66v44.93h10.11a19.56,19.56,0,0,0,9.28-2,18.1,18.1,0,0,0,6.32-5.46A23.41,23.41,0,0,0,339,108.3,37.13,37.13,0,0,0,340.13,99Z"/><path class="cls-1" d="M416.36,172.14H387.7V68.61h56.17a49.8,49.8,0,0,1,14,1.94,35.59,35.59,0,0,1,11.8,5.86,29,29,0,0,1,8.19,9.85,29.89,29.89,0,0,1,3.07,13.91,30.28,30.28,0,0,1-1.44,9.45,30.64,30.64,0,0,1-4,8.09,34.93,34.93,0,0,1-6,6.61,36.17,36.17,0,0,1-7.58,5,41.18,41.18,0,0,1-8.7,3.09,40.38,40.38,0,0,1-9.28,1.08H416.36Zm35.52-72q0-10-5.09-15.71t-15.34-5.72H416.36v44.93h15.09a22.43,22.43,0,0,0,9.35-1.76,16.51,16.51,0,0,0,6.32-4.92,20.86,20.86,0,0,0,3.61-7.44A35.94,35.94,0,0,0,451.88,100.18Z"/><path class="cls-1" d="M563.8,172.14H535.14V81.84h-28.3V68.61H592.1V81.84H563.8Z"/><path class="cls-1" d="M676.86,116.35a23.51,23.51,0,0,1-1.66,9.09,23,23,0,0,1-4.51,7,27.16,27.16,0,0,1-6.61,5.1,42.62,42.62,0,0,1-8,3.42,51,51,0,0,1-8.77,1.91,69.3,69.3,0,0,1-8.77.58,75.25,75.25,0,0,1-10.68-.75,62.72,62.72,0,0,1-10.4-2.41,42.69,42.69,0,0,0,2.53,9,25.09,25.09,0,0,0,4.62,7.48,20.73,20.73,0,0,0,7.11,5.07,24.55,24.55,0,0,0,10,1.87,23,23,0,0,0,7.29-1.15,23.33,23.33,0,0,0,6.35-3.24,24.31,24.31,0,0,0,5.09-5A26,26,0,0,0,664,148l10.54,3.88a30.14,30.14,0,0,1-6.53,9.81,37.67,37.67,0,0,1-9.39,6.83,45.54,45.54,0,0,1-11.12,4,54.16,54.16,0,0,1-11.66,1.29,47.46,47.46,0,0,1-17.62-3.2,40.51,40.51,0,0,1-23.1-22.68,47.61,47.61,0,0,1,0-34.94,40.51,40.51,0,0,1,23.1-22.68,47.46,47.46,0,0,1,17.62-3.2,71.31,71.31,0,0,1,9.46.65,57.85,57.85,0,0,1,9.39,2,45.55,45.55,0,0,1,8.59,3.63,27.44,27.44,0,0,1,7,5.5,25.39,25.39,0,0,1,4.76,7.58A25.8,25.8,0,0,1,676.86,116.35Zm-60.14,16.39q4.47,1,9,1.58a70.63,70.63,0,0,0,9,.58,41.06,41.06,0,0,0,8.84-.9,19.27,19.27,0,0,0,7.07-3,14.73,14.73,0,0,0,4.73-5.64,19.79,19.79,0,0,0,1.73-8.77,24.83,24.83,0,0,0-1.16-7.76,16.6,16.6,0,0,0-3.43-6,15.61,15.61,0,0,0-5.6-3.92,19.74,19.74,0,0,0-7.72-1.4,17.52,17.52,0,0,0-7.4,1.51A19.2,19.2,0,0,0,626,103a25.06,25.06,0,0,0-4.26,5.93,43,43,0,0,0-2.92,7,44.27,44.27,0,0,0-1.66,7.41,52.57,52.57,0,0,0-.51,7v1.15A9,9,0,0,0,616.72,132.75Z"/><path class="cls-1" d="M769,109.67l-10.54,4.17a23,23,0,0,0-8.45-12.15,23.78,23.78,0,0,0-14.22-4.24,21.32,21.32,0,0,0-8,1.4,19.68,19.68,0,0,0-6.14,3.85,23.62,23.62,0,0,0-4.48,5.68,35.41,35.41,0,0,0-3,6.9,43.74,43.74,0,0,0-1.66,7.58,59.14,59.14,0,0,0-.51,7.58,74.55,74.55,0,0,0,.43,8,46.62,46.62,0,0,0,1.48,7.73,33.63,33.63,0,0,0,2.78,6.9,20.68,20.68,0,0,0,4.37,5.57,19.46,19.46,0,0,0,6.28,3.74,23.88,23.88,0,0,0,8.41,1.37,23,23,0,0,0,7.29-1.15,23.33,23.33,0,0,0,6.35-3.24,25.09,25.09,0,0,0,5.13-5,23.7,23.7,0,0,0,3.54-6.4l10.61,3.88a32.07,32.07,0,0,1-6.32,9.81,35.69,35.69,0,0,1-8.92,6.83,41.74,41.74,0,0,1-10.68,4,52,52,0,0,1-11.55,1.29,47.26,47.26,0,0,1-17.54-3.2,40.84,40.84,0,0,1-23.17-22.72,44.74,44.74,0,0,1-3.32-17.43,45.65,45.65,0,0,1,3.28-17.54A40.11,40.11,0,0,1,713.6,90.26a48.14,48.14,0,0,1,17.69-3.16,52.6,52.6,0,0,1,11.84,1.33,40.43,40.43,0,0,1,10.72,4.1,36.14,36.14,0,0,1,8.88,7A32.83,32.83,0,0,1,769,109.67Z"/><path class="cls-1" d="M899.38,94.28,887,99.46a36.5,36.5,0,0,0-3.86-8.56,27.14,27.14,0,0,0-5.78-6.65,25.62,25.62,0,0,0-7.62-4.31,28.84,28.84,0,0,0-19.24.22A27.6,27.6,0,0,0,842.45,85a34,34,0,0,0-6.24,7.19,47.41,47.41,0,0,0-4.48,8.74,50.14,50.14,0,0,0-2.67,9.6,56.36,56.36,0,0,0-.87,9.71,65,65,0,0,0,1.77,15,42.5,42.5,0,0,0,5.63,13.44,30.53,30.53,0,0,0,10,9.67,28.27,28.27,0,0,0,14.87,3.7,24.63,24.63,0,0,0,8.74-1.55,27,27,0,0,0,7.47-4.24,29.77,29.77,0,0,0,5.88-6.36,34.13,34.13,0,0,0,4-7.91l12.49,5a38.57,38.57,0,0,1-7.51,12,43.41,43.41,0,0,1-10.87,8.52,52.23,52.23,0,0,1-13.07,5.07,59.41,59.41,0,0,1-14,1.69,57,57,0,0,1-14.69-1.87,54.79,54.79,0,0,1-13.1-5.32,52.9,52.9,0,0,1-19.46-19.2,53.13,53.13,0,0,1-5.41-13,56.9,56.9,0,0,1,0-29.26,53.79,53.79,0,0,1,5.41-13,52.63,52.63,0,0,1,19.46-19.23A54.82,54.82,0,0,1,838.91,68a57,57,0,0,1,14.69-1.87A60.27,60.27,0,0,1,868,67.9a50,50,0,0,1,13.1,5.21,43.54,43.54,0,0,1,10.79,8.77A39.94,39.94,0,0,1,899.38,94.28Z"/><path class="cls-1" d="M1002.61,130.44a41.43,41.43,0,0,1-1.73,12.15,42.55,42.55,0,0,1-4.8,10.5,41,41,0,0,1-7.4,8.66,45.91,45.91,0,0,1-9.49,6.51,49.86,49.86,0,0,1-11,4.1,51.41,51.41,0,0,1-24.15,0,50,50,0,0,1-11-4.1,45.87,45.87,0,0,1-9.49-6.51,41,41,0,0,1-7.4-8.66,42.35,42.35,0,0,1-4.8-10.53,43.22,43.22,0,0,1,0-24.23,42.37,42.37,0,0,1,4.8-10.53,41,41,0,0,1,7.4-8.66A45.93,45.93,0,0,1,933,92.63,50.38,50.38,0,0,1,956,87.09a50.77,50.77,0,0,1,12.09,1.44,49.93,49.93,0,0,1,11,4.1,46,46,0,0,1,9.49,6.51,41,41,0,0,1,7.4,8.66,42.42,42.42,0,0,1,4.8,10.53A41.54,41.54,0,0,1,1002.61,130.44Zm-24.83,0a71.34,71.34,0,0,0-.4-7.3A52.93,52.93,0,0,0,976,115.6a38.7,38.7,0,0,0-2.56-7.12,23.41,23.41,0,0,0-4-6A17.64,17.64,0,0,0,956,96.87a16.78,16.78,0,0,0-7.44,1.58,18.86,18.86,0,0,0-5.67,4.21,23.92,23.92,0,0,0-4,6.08,43.84,43.84,0,0,0-2.64,7.15,50,50,0,0,0-1.44,7.48,58.1,58.1,0,0,0,0,14.16,51,51,0,0,0,1.44,7.51,42.24,42.24,0,0,0,2.64,7.15,24.12,24.12,0,0,0,4,6,18.84,18.84,0,0,0,5.67,4.21A16.77,16.77,0,0,0,956,164a17.94,17.94,0,0,0,7.65-1.55,18.39,18.39,0,0,0,5.74-4.13,23,23,0,0,0,4-6,41,41,0,0,0,2.56-7.12,50.83,50.83,0,0,0,1.37-7.55A70.3,70.3,0,0,0,977.78,130.44Z"/><path class="cls-1" d="M1147,123.69a83.73,83.73,0,0,1-2,17.83,106.57,106.57,0,0,1-5.67,18.08,100.79,100.79,0,0,1-8.77,16.64,71,71,0,0,1-11.41,13.59l-9.17-5a59.81,59.81,0,0,0,3.83-8.41q1.73-4.67,3.18-9.85t2.53-10.64q1.08-5.46,1.84-10.89t1.12-10.53q.36-5.1.36-9.56,0-2.52-.14-5.46a54.79,54.79,0,0,0-.61-5.9,32.93,32.93,0,0,0-1.41-5.64,17.13,17.13,0,0,0-2.56-4.82,12,12,0,0,0-4-3.38,12.46,12.46,0,0,0-5.81-1.26,9.17,9.17,0,0,0-5.67,1.76,15.45,15.45,0,0,0-4,4.57,25.9,25.9,0,0,0-2.64,6.33,56.06,56.06,0,0,0-1.48,7.08q-.51,3.56-.69,6.79t-.18,5.46v41.63h-24.33V133.46q0-2.52.07-6.08t-.18-7.44a70.19,70.19,0,0,0-.94-7.73,25.89,25.89,0,0,0-2.17-6.87,13.51,13.51,0,0,0-4-4.92,10.26,10.26,0,0,0-6.35-1.91,8.34,8.34,0,0,0-5.45,1.8,14.57,14.57,0,0,0-3.68,4.64,27.08,27.08,0,0,0-2.31,6.4,60.85,60.85,0,0,0-1.23,7.12q-.4,3.56-.47,6.76t-.07,5.28v41.63H1018v-83h9.39l9,19.34q3-10.06,9.57-15.71t17.36-5.64q9.75,0,16.17,4t10.11,13.08a43.8,43.8,0,0,1,4.66-7.12,28.76,28.76,0,0,1,5.7-5.39,24.47,24.47,0,0,1,7-3.42,28.42,28.42,0,0,1,8.45-1.19,34.69,34.69,0,0,1,14.55,2.77,26.12,26.12,0,0,1,9.85,7.66,31.25,31.25,0,0,1,5.56,11.61A58.21,58.21,0,0,1,1147,123.69Z"/></g></g></svg>