<svg xmlns="http://www.w3.org/2000/svg" viewBox="0 0 940 306.56"><defs><style>.cls-1{fill:#333;}</style></defs><title>logo-black</title><g id="Layer_2" data-name="Layer 2"><g id="Layer_1-2" data-name="Layer 1"><g id="Canvas"><g id="Component"><g id="Union"><path id="path0_fill" data-name="path0 fill" class="cls-1" d="M0,142.67c0-6.87,5.73-9.9,8.59-10.56,31.28.44,95.55-2.24,102.42-16.51,5.26-10.91-3.72-35.28-12.08-57.95-2.56-7-5.07-13.76-7.09-20-4.51-13.86.93-32.75,17.84-37s24.67,11.22,27.75,18.49c0,0,30.4,87.81,31.72,96.39s2.64,21.79-.66,27.73-11.23,16.51-25.77,17.17c-11.63.53-94.27-3.3-134.13-5.28C5.73,154.55,0,151.12,0,142.67Z"/><path id="path1_fill" data-name="path1 fill" class="cls-1" d="M80.61,114.28A17.83,17.83,0,1,0,62.77,96.45,17.83,17.83,0,0,0,80.61,114.28Z"/></g><g id="Union-2" data-name="Union"><path id="path2_fill" data-name="path2 fill" class="cls-1" d="M205.74,306.24c-5.4,1.45-9-2.41-10.13-4.53-6.25-24.67-21.9-74.62-34.58-77-9.7-1.83-27,10.36-43.07,21.7-4.94,3.48-9.76,6.88-14.22,9.78-10,6.47-26,6.18-32.87-6.23s3.64-21.75,8.7-25.71c0,0,62.72-42.4,69.2-45.24s16.59-6.67,22-5.32,15.36,5.35,18.94,16.64c2.87,9,17.27,74.78,24.11,106.53C213.89,299.23,212.4,304.46,205.74,306.24Z"/><path id="path3_fill" data-name="path3 fill" class="cls-1" d="M166.41,248.87a14.53,14.53,0,1,0-10.27,17.78A14.53,14.53,0,0,0,166.41,248.87Z"/></g><g id="Union-3" data-name="Union"><path id="path4_fill" data-name="path4 fill" class="cls-1" d="M193.48,11.28a8,8,0,0,1,7.74,6.25c-.32,22.76,1.64,69.53,12.09,74.53,8,3.83,25.84-2.71,42.45-8.79,5.1-1.87,10.08-3.69,14.62-5.16,10.16-3.28,24,.67,27.09,13s-8.22,18-13.54,20.19c0,0-64.33,22.12-70.62,23.08s-16,1.92-20.31-.48-12.09-8.17-12.58-18.75c-.39-8.46,2.42-68.6,3.87-97.61C184.77,15.45,187.29,11.28,193.48,11.28Z"/><path id="path5_fill" data-name="path5 fill" class="cls-1" d="M214.28,69.95a13.06,13.06,0,1,0,13.06-13A13,13,0,0,0,214.28,69.95Z"/></g><g id="Union-4" data-name="Union"><path id="path6_fill" data-name="path6 fill" class="cls-1" d="M286.1,142.91a6.31,6.31,0,0,1-3.17,7.14c-17.35,4.38-52.46,15.38-54.13,24.32-1.28,6.84,7.31,19,15.3,30.39,2.45,3.48,4.85,6.89,6.89,10,4.56,7,4.37,18.32-4.35,23.17s-15.3-2.58-18.09-6.16c0,0-29.87-44.27-31.88-48.84s-4.7-11.71-3.76-15.5,3.75-10.83,11.68-13.34c6.35-2,52.58-12.11,74.9-16.91C281.16,137.16,284.84,138.22,286.1,142.91Z"/><path id="path7_fill" data-name="path7 fill" class="cls-1" d="M245.78,170.6a10.25,10.25,0,1,0,12.51,7.26A10.22,10.22,0,0,0,245.78,170.6Z"/></g></g></g><path class="cls-1" d="M396.05,123.24q0,17.21-15.17,21.68l18.38,25.26H384.2l-16.78-23.37H351.85v23.37H340V100.66h26.12q16.07,0,23,5.37T396.05,123.24Zm-15.77,9.85q3.62-3.08,3.62-9.9t-3.72-9.35q-3.72-2.54-13.26-2.54H351.85v24.86h14.77Q376.66,136.17,380.28,133.08Z"/><path class="cls-1" d="M460.54,106.73q7.33,6.07,7.33,18.7t-7.48,18.5q-7.48,5.87-23,5.87H425v20.39H413.13V100.66h24.11Q453.21,100.66,460.54,106.73Zm-8.39,28.69q3.56-3.73,3.57-10.94t-4.52-10.19q-4.52-3-14.16-3H425v27.85h13.76Q448.59,139.15,452.16,135.42Z"/><path class="cls-1" d="M535.88,111.4v58.77H524V111.4h-21.3V100.66h54.45V111.4Z"/><path class="cls-1" d="M618.15,148.6H576.26a12,12,0,0,0,5.32,9.3,18.81,18.81,0,0,0,11.25,3.53q10,0,15.27-6.27l6.43,7Q605.89,171,592,171a26.93,26.93,0,0,1-19.14-7.41Q565,156.16,565,143.67t8-19.84A27.12,27.12,0,0,1,592,116.48,27.6,27.6,0,0,1,610.52,123q7.63,6.51,7.63,18Zm-41.89-8.75H606.9q0-6.66-4.22-10.24a15.52,15.52,0,0,0-10.4-3.58,17.91,17.91,0,0,0-11.1,3.73A12,12,0,0,0,576.26,139.85Z"/><path class="cls-1" d="M654.21,171A27.13,27.13,0,0,1,635,163.46q-8-7.51-8-19.64t8.39-19.74a29.33,29.33,0,0,1,20.44-7.61,27.88,27.88,0,0,1,20.39,8.25l-6.63,8.06q-6.93-6-14-6a17.71,17.71,0,0,0-12.2,4.62,15.27,15.27,0,0,0-5.17,11.93,16.76,16.76,0,0,0,5.12,12.38A17.22,17.22,0,0,0,656,160.83q7.48,0,14.11-6.76l6.63,7.16Q667,171,654.21,171Z"/><path class="cls-1" d="M749.54,159.54a25,25,0,0,0,10.55-2,36.3,36.3,0,0,0,9.24-6.51l7.64,7.76Q765.81,171,749.89,171t-26.42-10.14Q713,150.69,713,135.17t10.7-25.86Q734.37,99,750.7,99A35.5,35.5,0,0,1,778,110.91l-7.53,8.15a32.94,32.94,0,0,0-9.49-6.66,26.85,26.85,0,0,0-10.5-1.89,25.09,25.09,0,0,0-17.88,6.81,22.86,22.86,0,0,0-7.23,17.4,23.9,23.9,0,0,0,7.18,17.7A23.38,23.38,0,0,0,749.54,159.54Z"/><path class="cls-1" d="M833,163.07Q825,171,812.93,171t-20.09-7.91a27.3,27.3,0,0,1,0-38.69q8-7.91,20.09-7.91T833,124.38a27.3,27.3,0,0,1,0,38.69Zm-32.2-6.86a17.6,17.6,0,0,0,24.21,0,18.71,18.71,0,0,0,0-25,17.6,17.6,0,0,0-24.21,0,18.71,18.71,0,0,0,0,25Z"/><path class="cls-1" d="M865.06,141.54v28.64H853.81V117.27h11.25v9.65a17.74,17.74,0,0,1,7.28-7.66,20.82,20.82,0,0,1,10.5-2.78q12.66,0,17.18,10.34,7.93-10.34,19.79-10.34,9,0,14.62,5.47T940,137.76v32.42H928.75v-29q0-14.62-12.26-14.62a15,15,0,0,0-10,3.63q-4.27,3.63-4.47,10.59v29.44H890.78v-29q0-7.56-2.71-11.09t-8.54-3.53a14.81,14.81,0,0,0-10.15,3.83Q865.06,134.18,865.06,141.54Z"/><path class="cls-1" d="M350,198.68a6.71,6.71,0,0,0,2.88-.57,9.9,9.9,0,0,0,2.52-1.82l2.09,2.16a9.56,9.56,0,0,1-7.4,3.41,9.85,9.85,0,0,1-7.22-2.83,10.37,10.37,0,0,1,.05-14.37,10.08,10.08,0,0,1,7.38-2.89,9.61,9.61,0,0,1,7.45,3.33l-2.06,2.28a9,9,0,0,0-2.59-1.86,7.2,7.2,0,0,0-2.87-.53,6.78,6.78,0,0,0-4.88,1.9,6.44,6.44,0,0,0-2,4.86,6.74,6.74,0,0,0,2,4.94A6.32,6.32,0,0,0,350,198.68Z"/><path class="cls-1" d="M372.8,199.66a7.73,7.73,0,1,1,2.2-5.4A7.43,7.43,0,0,1,372.8,199.66Zm-8.8-1.91a4.74,4.74,0,0,0,6.61,0,5.3,5.3,0,0,0,0-7,4.74,4.74,0,0,0-6.61,0,5.3,5.3,0,0,0,0,7Z"/><path class="cls-1" d="M381.55,193.65v8h-3.07V186.88h3.07v2.69a4.9,4.9,0,0,1,2-2.14,5.6,5.6,0,0,1,2.87-.78,4.64,4.64,0,0,1,4.69,2.89,6.53,6.53,0,0,1,5.41-2.89,5.4,5.4,0,0,1,4,1.53A6,6,0,0,1,402,192.6v9H399v-8.1q0-4.08-3.35-4.08a4,4,0,0,0-2.73,1,3.85,3.85,0,0,0-1.22,3v8.21h-3.07v-8.1a5.17,5.17,0,0,0-.74-3.09,2.73,2.73,0,0,0-2.33-1,3.86,3.86,0,0,0-4,4.19Z"/><path class="cls-1" d="M416.52,194.88v-8h3.07v14.76h-3.07V199a5.51,5.51,0,0,1-2,2.14,5.78,5.78,0,0,1-6.81-.75,6,6,0,0,1-1.52-4.41v-9h3.07V195q0,4.08,3.35,4.08a3.86,3.86,0,0,0,4-4.19Z"/><path class="cls-1" d="M427.11,193.65v8H424V186.88h3.07v2.69a5.51,5.51,0,0,1,2-2.14,5.78,5.78,0,0,1,6.81.75,6,6,0,0,1,1.52,4.41v9h-3.07v-8.1q0-4.08-3.35-4.08a3.86,3.86,0,0,0-4,4.19Z"/><path class="cls-1" d="M442,183.94a2,2,0,0,1,0-2.78,1.91,1.91,0,0,1,2.74,0,2,2,0,0,1,0,2.78,1.91,1.91,0,0,1-2.74,0Zm2.88,17.7h-3.07V186.88h3.07Z"/><path class="cls-1" d="M450.41,199.76a7.61,7.61,0,0,1-2.06-5.55,7.31,7.31,0,0,1,2.11-5.49,7,7,0,0,1,5-2.05,5.52,5.52,0,0,1,4.71,2.5v-8.1h3.07v20.59h-3.07v-2.22a5.67,5.67,0,0,1-5,2.44A6.54,6.54,0,0,1,450.41,199.76Zm1-5.43a4.65,4.65,0,0,0,1.34,3.45,4.34,4.34,0,0,0,3.16,1.33,4.06,4.06,0,0,0,3.07-1.35,4.85,4.85,0,0,0,1.26-3.45A5.1,5.1,0,0,0,459,190.8a4,4,0,0,0-3.1-1.42,4.16,4.16,0,0,0-3.16,1.42A5,5,0,0,0,451.43,194.33Z"/><path class="cls-1" d="M479.56,201.65h-2.8v-2a6,6,0,0,1-4.86,2.19,5.53,5.53,0,0,1-3.77-1.3,4.39,4.39,0,0,1-1.5-3.48,3.68,3.68,0,0,1,1.59-3.26,7.56,7.56,0,0,1,4.31-1.08h4v-.56q0-2.94-3.24-2.94a7.54,7.54,0,0,0-4.23,1.5l-1.37-1.94a9.39,9.39,0,0,1,6-2.14,6.5,6.5,0,0,1,4.21,1.32,5,5,0,0,1,1.63,4.15Zm-3.07-5.49V194.9H473q-3.32,0-3.32,2.11a1.88,1.88,0,0,0,.82,1.65,4,4,0,0,0,2.29.57,4.13,4.13,0,0,0,2.57-.83A2.68,2.68,0,0,0,476.48,196.15Z"/><path class="cls-1" d="M485,199.76a7.61,7.61,0,0,1-2.06-5.55,7.31,7.31,0,0,1,2.11-5.49,7,7,0,0,1,5-2.05,5.52,5.52,0,0,1,4.71,2.5v-8.1h3.07v20.59h-3.07v-2.22a5.67,5.67,0,0,1-5,2.44A6.54,6.54,0,0,1,485,199.76Zm1-5.43a4.65,4.65,0,0,0,1.34,3.45,4.34,4.34,0,0,0,3.16,1.33,4.06,4.06,0,0,0,3.07-1.35,4.85,4.85,0,0,0,1.26-3.45,5.1,5.1,0,0,0-1.26-3.52,4,4,0,0,0-3.1-1.42,4.16,4.16,0,0,0-3.16,1.42A5,5,0,0,0,486,194.33Z"/><path class="cls-1" d="M515.87,195.62H504.42a3.37,3.37,0,0,0,1.45,2.59,5.61,5.61,0,0,0,7.25-.76l1.76,1.94a8.12,8.12,0,0,1-6.15,2.47,7.6,7.6,0,0,1,0-15.21,7.44,7.44,0,0,1,5.06,1.82,6.3,6.3,0,0,1,2.09,5Zm-11.44-2.44h8.37a3.58,3.58,0,0,0-1.15-2.86,4.18,4.18,0,0,0-2.84-1,4.83,4.83,0,0,0-3,1A3.37,3.37,0,0,0,504.42,193.18Z"/><path class="cls-1" d="M534.45,185.25v16.4h-3.24v-16.4h-5.82v-3h14.88v3Z"/><path class="cls-1" d="M556.93,195.62H545.48a3.37,3.37,0,0,0,1.45,2.59,5.61,5.61,0,0,0,7.25-.76l1.76,1.94a8.12,8.12,0,0,1-6.15,2.47,7.6,7.6,0,0,1,0-15.21,7.44,7.44,0,0,1,5.06,1.82,6.3,6.3,0,0,1,2.09,5Zm-11.44-2.44h8.37a3.58,3.58,0,0,0-1.15-2.86,4.18,4.18,0,0,0-2.84-1,4.83,4.83,0,0,0-3,1A3.37,3.37,0,0,0,545.48,193.18Z"/><path class="cls-1" d="M566.78,201.87a7.33,7.33,0,0,1-5.24-2.1,7.85,7.85,0,0,1,.1-11,7.92,7.92,0,0,1,5.59-2.12,7.54,7.54,0,0,1,5.57,2.3L571,191.21a5.8,5.8,0,0,0-3.81-1.67,4.78,4.78,0,0,0-3.33,1.29,4.3,4.3,0,0,0-1.41,3.33,4.73,4.73,0,0,0,1.4,3.46,4.66,4.66,0,0,0,3.44,1.41,5.33,5.33,0,0,0,3.86-1.89l1.81,2A8.36,8.36,0,0,1,566.78,201.87Z"/><path class="cls-1" d="M579.18,193.65v8h-3.07V186.88h3.07v2.69a5.51,5.51,0,0,1,2-2.14,5.78,5.78,0,0,1,6.81.75,6,6,0,0,1,1.52,4.41v9h-3.07v-8.1q0-4.08-3.35-4.08a3.86,3.86,0,0,0-4,4.19Z"/><path class="cls-1" d="M606.05,199.66a7.73,7.73,0,1,1,2.2-5.4A7.43,7.43,0,0,1,606.05,199.66Zm-8.8-1.91a4.74,4.74,0,0,0,6.61,0,5.3,5.3,0,0,0,0-7,4.74,4.74,0,0,0-6.61,0,5.3,5.3,0,0,0,0,7Z"/><path class="cls-1" d="M614.81,201.65h-3.07V181.06h3.07Z"/><path class="cls-1" d="M631.47,199.66a7.73,7.73,0,1,1,2.2-5.4A7.43,7.43,0,0,1,631.47,199.66Zm-8.8-1.91a4.74,4.74,0,0,0,6.61,0,5.3,5.3,0,0,0,0-7,4.74,4.74,0,0,0-6.61,0,5.3,5.3,0,0,0,0,7ZM627.38,185h-2.8l2.91-4,3.24,1.36Z"/><path class="cls-1" d="M650.65,186.88v12.88q0,3.91-2.1,5.87a7.6,7.6,0,0,1-5.39,2,9.43,9.43,0,0,1-6-2.08l1.45-2.36a7.08,7.08,0,0,0,4.32,1.64,5,5,0,0,0,3.46-1.14,4.64,4.64,0,0,0,1.28-3.64v-1.89a5.28,5.28,0,0,1-2,2.08,5.41,5.41,0,0,1-2.87.78,6.16,6.16,0,0,1-4.78-2.05,7.92,7.92,0,0,1,0-10.21,6.15,6.15,0,0,1,4.76-2.05,5.63,5.63,0,0,1,4.71,2.41v-2.19Zm-11.39,6.81a4.71,4.71,0,0,0,1.11,3.14,3.71,3.71,0,0,0,3,1.32,3.94,3.94,0,0,0,3-1.28,4.53,4.53,0,0,0,1.17-3.18,4.66,4.66,0,0,0-1.18-3.22,3.9,3.9,0,0,0-3-1.32,3.65,3.65,0,0,0-3,1.36A4.87,4.87,0,0,0,639.26,193.7Z"/><path class="cls-1" d="M655.29,183.94a2,2,0,0,1,0-2.78,1.91,1.91,0,0,1,2.74,0,2,2,0,0,1,0,2.78,1.91,1.91,0,0,1-2.74,0Zm2.88,17.7H655.1V186.88h3.07Z"/><path class="cls-1" d="M669.09,201.87a7.33,7.33,0,0,1-5.24-2.1,7.85,7.85,0,0,1,.1-11,7.92,7.92,0,0,1,5.59-2.12,7.54,7.54,0,0,1,5.57,2.3l-1.81,2.25a5.8,5.8,0,0,0-3.81-1.67,4.78,4.78,0,0,0-3.34,1.29,4.3,4.3,0,0,0-1.41,3.33,4.73,4.73,0,0,0,1.4,3.46,4.66,4.66,0,0,0,3.44,1.41,5.33,5.33,0,0,0,3.86-1.89l1.81,2A8.36,8.36,0,0,1,669.09,201.87Z"/><path class="cls-1" d="M690.14,201.65h-2.8v-2a6,6,0,0,1-4.86,2.19,5.53,5.53,0,0,1-3.77-1.3,4.39,4.39,0,0,1-1.5-3.48,3.68,3.68,0,0,1,1.59-3.26,7.56,7.56,0,0,1,4.31-1.08h4v-.56q0-2.94-3.24-2.94a7.54,7.54,0,0,0-4.23,1.5l-1.37-1.94a9.39,9.39,0,0,1,6-2.14,6.5,6.5,0,0,1,4.21,1.32,5,5,0,0,1,1.63,4.15Zm-3.07-5.49V194.9h-3.46q-3.32,0-3.32,2.11a1.88,1.88,0,0,0,.82,1.65,4,4,0,0,0,2.29.57,4.13,4.13,0,0,0,2.57-.83A2.68,2.68,0,0,0,687.07,196.15Z"/><path class="cls-1" d="M703.07,199.76a7.61,7.61,0,0,1-2.06-5.55,7.31,7.31,0,0,1,2.11-5.49,7,7,0,0,1,5-2.05,5.52,5.52,0,0,1,4.71,2.5v-8.1h3.07v20.59h-3.07v-2.22a5.67,5.67,0,0,1-5,2.44A6.53,6.53,0,0,1,703.07,199.76Zm1-5.43a4.65,4.65,0,0,0,1.35,3.45,4.34,4.34,0,0,0,3.16,1.33,4.06,4.06,0,0,0,3.07-1.35,4.85,4.85,0,0,0,1.26-3.45,5.1,5.1,0,0,0-1.26-3.52,4,4,0,0,0-3.1-1.42,4.16,4.16,0,0,0-3.16,1.42A5,5,0,0,0,704.08,194.33Z"/><path class="cls-1" d="M734,195.62H722.53a3.37,3.37,0,0,0,1.45,2.59,5.61,5.61,0,0,0,7.25-.76L733,199.4a8.12,8.12,0,0,1-6.15,2.47,7.6,7.6,0,0,1,0-15.21,7.44,7.44,0,0,1,5.06,1.82,6.3,6.3,0,0,1,2.09,5Zm-11.44-2.44h8.37a3.58,3.58,0,0,0-1.15-2.86,4.18,4.18,0,0,0-2.84-1,4.83,4.83,0,0,0-3,1A3.37,3.37,0,0,0,722.53,193.18Z"/><path class="cls-1" d="M760.62,188.55q0,4.8-4.14,6l5,7h-4.12l-4.58-6.52h-4.25v6.52h-3.24v-19.4h7.14q4.39,0,6.28,1.5T760.62,188.55Zm-4.31,2.75a3.48,3.48,0,0,0,1-2.76,3,3,0,0,0-1-2.61,6.69,6.69,0,0,0-3.62-.71h-4.12v6.94h4Q755.32,192.16,756.31,191.3Z"/><path class="cls-1" d="M765,183.94a2,2,0,0,1,0-2.78,1.91,1.91,0,0,1,2.74,0,2,2,0,0,1,0,2.78,1.91,1.91,0,0,1-2.74,0Zm2.88,17.7h-3.07V186.88h3.07Z"/><path class="cls-1" d="M780.19,186.66a6.9,6.9,0,0,1,5,2.05,7.33,7.33,0,0,1,2.09,5.47,7.64,7.64,0,0,1-2.07,5.55,6.38,6.38,0,0,1-9.78-.31v2.22h-3.07V181.06h3.07v8.41A5.46,5.46,0,0,1,780.19,186.66Zm-4.8,7.63a4.85,4.85,0,0,0,1.26,3.45,4.06,4.06,0,0,0,3.07,1.35,4.34,4.34,0,0,0,3.16-1.33,4.65,4.65,0,0,0,1.34-3.45,4.94,4.94,0,0,0-1.32-3.52,4.18,4.18,0,0,0-3.16-1.4,4,4,0,0,0-3.1,1.4A5,5,0,0,0,775.39,194.29Z"/><path class="cls-1" d="M804.4,195.62H793a3.37,3.37,0,0,0,1.45,2.59,5.61,5.61,0,0,0,7.25-.76l1.76,1.94a8.12,8.12,0,0,1-6.15,2.47,7.6,7.6,0,0,1,0-15.21,7.44,7.44,0,0,1,5.06,1.82,6.3,6.3,0,0,1,2.09,5ZM793,193.18h8.37a3.58,3.58,0,0,0-1.15-2.86,4.18,4.18,0,0,0-2.84-1,4.83,4.83,0,0,0-3,1A3.37,3.37,0,0,0,793,193.18Z"/><path class="cls-1" d="M808,183.94a2,2,0,0,1,0-2.78,1.91,1.91,0,0,1,2.74,0,2,2,0,0,1,0,2.78,1.91,1.91,0,0,1-2.74,0Zm2.88,17.7h-3.07V186.88h3.07Z"/><path class="cls-1" d="M822.95,189.8a4.06,4.06,0,0,0-3.43,1.5,6.43,6.43,0,0,0-1.15,4v6.33h-3.07V186.88h3.07v3a6.41,6.41,0,0,1,2-2.28,4.83,4.83,0,0,1,2.7-.92l0,3.14Z"/><path class="cls-1" d="M838,201.65h-2.8v-2a6,6,0,0,1-4.86,2.19,5.53,5.53,0,0,1-3.77-1.3,4.39,4.39,0,0,1-1.5-3.48,3.68,3.68,0,0,1,1.59-3.26,7.56,7.56,0,0,1,4.31-1.08h4v-.56q0-2.94-3.24-2.94a7.54,7.54,0,0,0-4.23,1.5l-1.37-1.94a9.39,9.39,0,0,1,6-2.14,6.5,6.5,0,0,1,4.21,1.32,5,5,0,0,1,1.63,4.15Zm-4-16.57a4.84,4.84,0,0,1-2-.65,5.32,5.32,0,0,0-1.63-.65q-.91,0-.93,1.22h-2a4.74,4.74,0,0,1,.64-2.61,2,2,0,0,1,1.8-1,5.12,5.12,0,0,1,2.06.65,5.42,5.42,0,0,0,1.73.65q.82,0,.82-1.22h2.06Q836.42,185.08,834,185.08Zm1,11.07V194.9h-3.46q-3.32,0-3.32,2.11a1.88,1.88,0,0,0,.82,1.65,4,4,0,0,0,2.29.57,4.13,4.13,0,0,0,2.57-.83A2.68,2.68,0,0,0,834.94,196.15Z"/><path class="cls-1" d="M854.51,199.66a7.73,7.73,0,1,1,2.2-5.4A7.43,7.43,0,0,1,854.51,199.66Zm-8.8-1.91a4.74,4.74,0,0,0,6.61,0,5.3,5.3,0,0,0,0-7,4.74,4.74,0,0,0-6.61,0,5.3,5.3,0,0,0,0,7Z"/><path class="cls-1" d="M881.1,183.94a6.46,6.46,0,0,1,2,5.22q0,3.52-2,5.16T874.79,196h-3.4v5.69h-3.24v-19.4h6.59Q879.1,182.25,881.1,183.94Zm-2.29,8a4.31,4.31,0,0,0,1-3.05,3.18,3.18,0,0,0-1.23-2.84,7.06,7.06,0,0,0-3.87-.83h-3.29V193h3.76Q877.84,193,878.81,191.95Z"/><path class="cls-1" d="M894.14,189.8a4.06,4.06,0,0,0-3.43,1.5,6.43,6.43,0,0,0-1.15,4v6.33h-3.07V186.88h3.07v3a6.41,6.41,0,0,1,2-2.28,4.83,4.83,0,0,1,2.7-.92l0,3.14Z"/><path class="cls-1" d="M911,195.62H899.52a3.37,3.37,0,0,0,1.45,2.59,5.61,5.61,0,0,0,7.25-.76L910,199.4a8.12,8.12,0,0,1-6.15,2.47,7.6,7.6,0,0,1,0-15.21,7.44,7.44,0,0,1,5.06,1.82,6.3,6.3,0,0,1,2.09,5Zm-11.44-2.44h8.37a3.58,3.58,0,0,0-1.15-2.86,4.18,4.18,0,0,0-2.84-1,4.83,4.83,0,0,0-3,1A3.37,3.37,0,0,0,899.52,193.18Z"/><path class="cls-1" d="M918,189.38v7.49a2.45,2.45,0,0,0,.55,1.68,1.94,1.94,0,0,0,1.54.62,2.61,2.61,0,0,0,1.89-1l1.26,2.19a5.21,5.21,0,0,1-3.58,1.47,4.58,4.58,0,0,1-3.35-1.37,5,5,0,0,1-1.39-3.7v-7.41H913.1v-2.5h1.84v-4.63H918v4.63h3.84v2.5Z"/><path class="cls-1" d="M937.8,199.66a7.73,7.73,0,1,1,2.2-5.4A7.43,7.43,0,0,1,937.8,199.66Zm-8.8-1.91a4.74,4.74,0,0,0,6.61,0,5.3,5.3,0,0,0,0-7,4.74,4.74,0,0,0-6.61,0,5.3,5.3,0,0,0,0,7Z"/><rect class="cls-1" x="307" y="154" width="10" height="10"/></g></g></svg>