<svg xmlns="http://www.w3.org/2000/svg" viewBox="0 0 1089 256"><defs><style>.cls-1{fill:#ffdd25;}.cls-2{fill:#333;}.cls-3{fill:#1976d2;}.cls-4{fill:#aaa;}.cls-5{fill:#fff;}</style></defs><title>logo-color-slogan-white</title><g id="Layer_2" data-name="Layer 2"><g id="Layer_1-2" data-name="Layer 1"><g id="Canvas"><g id="Component"><g id="Union"><path id="path0_fill" data-name="path0 fill" class="cls-1" d="M0,119.14c0-5.73,4.8-8.27,7.21-8.82,26.24.37,80.16-1.87,85.92-13.78C97.54,87.42,90,67.08,83,48.14c-2.15-5.81-4.25-11.49-5.94-16.67C73.27,19.9,77.83,4.13,92,.6S112.71,10,115.3,16c0,0,25.5,73.33,26.61,80.5s2.22,18.19-.55,23.16-9.42,13.78-21.62,14.33c-9.76.44-79.08-2.76-112.53-4.41C4.8,129.06,0,126.2,0,119.14Z"/><path id="path1_fill" data-name="path1 fill" class="cls-1" d="M67.63,95.43a14.89,14.89,0,1,0-15-14.89A14.93,14.93,0,0,0,67.63,95.43Z"/></g><g id="Union-2" data-name="Union"><path id="path2_fill" data-name="path2 fill" class="cls-2" d="M172.6,255.74a7.53,7.53,0,0,1-8.49-3.78c-5.24-20.6-18.38-62.31-29-64.31-8.14-1.53-22.64,8.65-36.13,18.12-4.14,2.91-8.19,5.75-11.93,8.16-8.36,5.4-21.79,5.16-27.57-5.2s3.05-18.17,7.3-21.47c0,0,52.62-35.4,58.05-37.78s13.92-5.57,18.43-4.45,12.89,4.47,15.89,13.89c2.41,7.54,14.49,62.45,20.23,89C179.44,249.89,178.19,254.25,172.6,255.74Z"/><path id="path3_fill" data-name="path3 fill" class="cls-2" d="M139.6,207.82A12.18,12.18,0,1,0,131,222.67,12.19,12.19,0,0,0,139.6,207.82Z"/></g><g id="Union-3" data-name="Union"><path id="path4_fill" data-name="path4 fill" class="cls-3" d="M162.32,9.42a6.74,6.74,0,0,1,6.49,5.22c-.27,19,1.38,58.06,10.14,62.24,6.71,3.2,21.68-2.26,35.61-7.34,4.28-1.56,8.46-3.08,12.27-4.31,8.52-2.74,20.13.56,22.72,10.84s-6.9,15-11.36,16.86c0,0-54,18.47-59.24,19.27s-13.39,1.61-17-.4S151.77,105,151.36,96.15c-.32-7.07,2-57.29,3.25-81.51C155,12.9,157.12,9.42,162.32,9.42Z"/><path id="path5_fill" data-name="path5 fill" class="cls-3" d="M179.76,58.41a11,11,0,1,0,11-10.84A10.9,10.9,0,0,0,179.76,58.41Z"/></g><g id="Union-4" data-name="Union"><path id="path6_fill" data-name="path6 fill" class="cls-4" d="M240,119.34a5.26,5.26,0,0,1-2.66,6c-14.55,3.66-44,12.84-45.41,20.31-1.07,5.71,6.13,15.9,12.84,25.38,2.06,2.91,4.07,5.75,5.78,8.38,3.82,5.87,3.66,15.3-3.65,19.35s-12.84-2.16-15.17-5.14c0,0-25.06-37-26.74-40.78S161,143,161.83,139.85s3.14-9,9.8-11.14c5.32-1.68,44.11-10.11,62.83-14.12C235.87,114.54,239,115.43,240,119.34Z"/><path id="path7_fill" data-name="path7 fill" class="cls-4" d="M206.19,142.47a8.56,8.56,0,1,0,10.5,6.06A8.53,8.53,0,0,0,206.19,142.47Z"/></g></g></g><path class="cls-3" d="M306.45,156.09H281V64.17h45.38a50.53,50.53,0,0,1,12.37,1.5,31.51,31.51,0,0,1,10.54,4.72,23.6,23.6,0,0,1,7.31,8.33,26,26,0,0,1,2.72,12.38,24.4,24.4,0,0,1-2.4,10.69,31.5,31.5,0,0,1-6.41,8.94,36.68,36.68,0,0,1-20,9.93q2.5,4.21,5.22,8t5.51,7.05q2.79,3.29,5.54,6.06t5.26,5.07a103.54,103.54,0,0,0,11.67,9.26H332a52.58,52.58,0,0,1-7.31-8.75,77.14,77.14,0,0,1-5.93-10.76,63.23,63.23,0,0,1-4.58-14.84h-7.76Zm27.05-65q0-9.26-4.52-13.6t-13.56-4.34h-9v39.9h9a17.36,17.36,0,0,0,8.24-1.82,16.07,16.07,0,0,0,5.61-4.85,20.78,20.78,0,0,0,3.21-7A33,33,0,0,0,333.5,91.11Z"/><path class="cls-3" d="M401.19,156.09H375.74V64.17h49.87A44.22,44.22,0,0,1,438,65.89a31.6,31.6,0,0,1,10.48,5.2,25.73,25.73,0,0,1,7.28,8.75,26.54,26.54,0,0,1,2.72,12.35,26.89,26.89,0,0,1-1.28,8.39,27.21,27.21,0,0,1-3.56,7.18,31,31,0,0,1-5.35,5.87,32.11,32.11,0,0,1-6.73,4.4,36.57,36.57,0,0,1-7.72,2.74,35.86,35.86,0,0,1-8.24,1H401.19Zm31.54-63.9q0-8.87-4.52-13.95t-13.62-5.07h-13.4v39.9h13.4a19.91,19.91,0,0,0,8.3-1.56,14.66,14.66,0,0,0,5.61-4.37,18.52,18.52,0,0,0,3.21-6.61A31.91,31.91,0,0,0,432.73,92.19Z"/><path class="cls-3" d="M551.64,156.09H526.19V75.92H501.06V64.17h75.7V75.92H551.64Z"/><path class="cls-3" d="M652,106.56a20.87,20.87,0,0,1-1.47,8.08,20.4,20.4,0,0,1-4,6.22,24.11,24.11,0,0,1-5.87,4.53,37.84,37.84,0,0,1-7.12,3,45.25,45.25,0,0,1-7.79,1.69,61.53,61.53,0,0,1-7.79.51,66.82,66.82,0,0,1-9.49-.67,55.69,55.69,0,0,1-9.23-2.14,37.9,37.9,0,0,0,2.24,8,22.27,22.27,0,0,0,4.1,6.64,18.41,18.41,0,0,0,6.31,4.5,21.8,21.8,0,0,0,8.88,1.66,20.41,20.41,0,0,0,6.47-1,20.72,20.72,0,0,0,5.64-2.87,21.58,21.58,0,0,0,4.52-4.4,23.08,23.08,0,0,0,3.17-5.68l9.36,3.45a26.76,26.76,0,0,1-5.8,8.71,33.45,33.45,0,0,1-8.33,6.06,40.44,40.44,0,0,1-9.87,3.54,48.09,48.09,0,0,1-10.35,1.15A42.14,42.14,0,0,1,600,154.72a36,36,0,0,1-20.51-20.14,42.28,42.28,0,0,1,0-31A36,36,0,0,1,600,83.42a42.14,42.14,0,0,1,15.64-2.84,63.32,63.32,0,0,1,8.4.57A51.36,51.36,0,0,1,632.34,83,40.44,40.44,0,0,1,640,86.19a24.36,24.36,0,0,1,6.25,4.88,22.55,22.55,0,0,1,4.23,6.73A22.91,22.91,0,0,1,652,106.56Zm-53.4,14.55q4,.89,7.95,1.4a62.72,62.72,0,0,0,8,.51,36.46,36.46,0,0,0,7.85-.8,17.11,17.11,0,0,0,6.28-2.68,13.08,13.08,0,0,0,4.2-5,17.57,17.57,0,0,0,1.54-7.79,22,22,0,0,0-1-6.89,14.74,14.74,0,0,0-3-5.36,13.86,13.86,0,0,0-5-3.48,17.53,17.53,0,0,0-6.86-1.24A15.55,15.55,0,0,0,612,91.11a17,17,0,0,0-5.13,3.61,22.25,22.25,0,0,0-3.78,5.27,38.17,38.17,0,0,0-2.6,6.26,39.31,39.31,0,0,0-1.47,6.58,46.68,46.68,0,0,0-.45,6.26v1A8,8,0,0,0,598.62,121.11Z"/><path class="cls-3" d="M733.88,100.62l-9.36,3.7A20.45,20.45,0,0,0,717,93.54a21.11,21.11,0,0,0-12.63-3.77A18.93,18.93,0,0,0,697.31,91a17.47,17.47,0,0,0-5.45,3.42,21,21,0,0,0-4,5,31.44,31.44,0,0,0-2.66,6.13,38.83,38.83,0,0,0-1.47,6.73,52.51,52.51,0,0,0-.45,6.73,66.2,66.2,0,0,0,.38,7.09A41.4,41.4,0,0,0,685,133a29.86,29.86,0,0,0,2.47,6.13,18.36,18.36,0,0,0,3.88,4.95,17.28,17.28,0,0,0,5.58,3.32,21.21,21.21,0,0,0,7.47,1.21,20.41,20.41,0,0,0,6.47-1,20.72,20.72,0,0,0,5.64-2.87,22.28,22.28,0,0,0,4.55-4.4,21,21,0,0,0,3.14-5.68l9.42,3.45a28.47,28.47,0,0,1-5.61,8.71,31.69,31.69,0,0,1-7.92,6.06,37.06,37.06,0,0,1-9.49,3.54,46.21,46.21,0,0,1-10.26,1.15,42,42,0,0,1-15.58-2.84,36.26,36.26,0,0,1-20.58-20.17,39.73,39.73,0,0,1-2.95-15.48,40.53,40.53,0,0,1,2.92-15.58,35.62,35.62,0,0,1,20.48-20.11,42.74,42.74,0,0,1,15.7-2.81,46.71,46.71,0,0,1,10.51,1.18,35.9,35.9,0,0,1,9.52,3.64,32.09,32.09,0,0,1,7.88,6.22A29.15,29.15,0,0,1,733.88,100.62Z"/><path class="cls-3" d="M869.13,87l-11,4.6a32.41,32.41,0,0,0-3.43-7.6,24.1,24.1,0,0,0-5.13-5.9,22.75,22.75,0,0,0-6.76-3.83,25.61,25.61,0,0,0-17.08.19,24.51,24.51,0,0,0-7.18,4.31A30.15,30.15,0,0,0,813,85.11a42.09,42.09,0,0,0-4,7.76,44.52,44.52,0,0,0-2.37,8.52,50,50,0,0,0-.77,8.62,57.75,57.75,0,0,0,1.57,13.34,37.73,37.73,0,0,0,5,11.94,27.11,27.11,0,0,0,8.88,8.59,25.1,25.1,0,0,0,13.2,3.29,21.87,21.87,0,0,0,7.76-1.37A24,24,0,0,0,849,142a26.43,26.43,0,0,0,5.22-5.65,30.3,30.3,0,0,0,3.59-7l11.09,4.4a34.24,34.24,0,0,1-6.67,10.63,38.54,38.54,0,0,1-9.65,7.56,46.37,46.37,0,0,1-11.6,4.5,52.75,52.75,0,0,1-12.47,1.5,50.62,50.62,0,0,1-13-1.66,48.65,48.65,0,0,1-11.63-4.72,47,47,0,0,1-17.28-17A47.17,47.17,0,0,1,781.73,123a50.52,50.52,0,0,1,0-26,47.76,47.76,0,0,1,4.81-11.55,46.74,46.74,0,0,1,17.28-17.08,48.68,48.68,0,0,1,11.63-4.72,50.62,50.62,0,0,1,13-1.66,53.52,53.52,0,0,1,12.79,1.53,44.44,44.44,0,0,1,11.63,4.63,38.66,38.66,0,0,1,9.58,7.79A35.46,35.46,0,0,1,869.13,87Z"/><path class="cls-3" d="M960.8,119.07a36.79,36.79,0,0,1-1.54,10.79,37.78,37.78,0,0,1-4.26,9.32,36.39,36.39,0,0,1-6.57,7.69,40.76,40.76,0,0,1-8.43,5.78,44.27,44.27,0,0,1-9.81,3.64,45.65,45.65,0,0,1-21.44,0,44.37,44.37,0,0,1-9.78-3.64,40.73,40.73,0,0,1-8.43-5.78,36.36,36.36,0,0,1-6.57-7.69,37.61,37.61,0,0,1-4.26-9.35,38.37,38.37,0,0,1,0-21.51A37.62,37.62,0,0,1,884,99a36.39,36.39,0,0,1,6.57-7.69A40.78,40.78,0,0,1,899,85.49a44.74,44.74,0,0,1,20.48-4.92,45.08,45.08,0,0,1,10.74,1.28A44.33,44.33,0,0,1,940,85.49a40.81,40.81,0,0,1,8.43,5.78A36.43,36.43,0,0,1,955,99a37.66,37.66,0,0,1,4.26,9.35A36.89,36.89,0,0,1,960.8,119.07Zm-22.05,0a63.35,63.35,0,0,0-.35-6.48,47,47,0,0,0-1.19-6.7,34.36,34.36,0,0,0-2.28-6.32,20.78,20.78,0,0,0-3.56-5.3,15.66,15.66,0,0,0-11.92-5,14.9,14.9,0,0,0-6.6,1.4,16.75,16.75,0,0,0-5,3.73,21.24,21.24,0,0,0-3.59,5.39,38.93,38.93,0,0,0-2.34,6.35,44.36,44.36,0,0,0-1.28,6.64,51.59,51.59,0,0,0,0,12.58,45.27,45.27,0,0,0,1.28,6.67,37.5,37.5,0,0,0,2.34,6.35,21.42,21.42,0,0,0,3.59,5.36,16.72,16.72,0,0,0,5,3.73,14.89,14.89,0,0,0,6.6,1.4,15.93,15.93,0,0,0,6.79-1.37,16.33,16.33,0,0,0,5.1-3.67,20.45,20.45,0,0,0,3.56-5.3,36.44,36.44,0,0,0,2.28-6.32,45.13,45.13,0,0,0,1.22-6.7A62.42,62.42,0,0,0,938.75,119.07Z"/><path class="cls-3" d="M1089,113.07a74.35,74.35,0,0,1-1.79,15.83,94.63,94.63,0,0,1-5,16.05,89.49,89.49,0,0,1-7.79,14.78,63,63,0,0,1-10.13,12.07l-8.14-4.4a53.11,53.11,0,0,0,3.4-7.47q1.54-4.15,2.82-8.75t2.24-9.45q1-4.85,1.63-9.67t1-9.35q.32-4.53.32-8.49,0-2.23-.13-4.85a48.65,48.65,0,0,0-.54-5.23,29.24,29.24,0,0,0-1.25-5,15.21,15.21,0,0,0-2.28-4.28,10.67,10.67,0,0,0-3.59-3,11.06,11.06,0,0,0-5.16-1.12,8.14,8.14,0,0,0-5,1.56,13.72,13.72,0,0,0-3.56,4.05,23,23,0,0,0-2.34,5.62,49.77,49.77,0,0,0-1.31,6.29q-.45,3.16-.61,6t-.16,4.85v37H1020V121.75q0-2.23.06-5.39t-.16-6.61a62.32,62.32,0,0,0-.83-6.86,23,23,0,0,0-1.92-6.1,12,12,0,0,0-3.56-4.37,9.11,9.11,0,0,0-5.64-1.69,7.4,7.4,0,0,0-4.84,1.6,12.94,12.94,0,0,0-3.27,4.12,24,24,0,0,0-2.05,5.68,54,54,0,0,0-1.09,6.32q-.35,3.16-.42,6t-.06,4.69v37H974.45V82.36h8.33l7.95,17.17q2.69-8.94,8.49-13.95t15.42-5q8.65,0,14.36,3.57t9,11.62a38.89,38.89,0,0,1,4.13-6.32,25.53,25.53,0,0,1,5.06-4.79,21.73,21.73,0,0,1,6.19-3,25.23,25.23,0,0,1,7.5-1.05A30.81,30.81,0,0,1,1073.78,83a23.19,23.19,0,0,1,8.75,6.8,27.74,27.74,0,0,1,4.94,10.31A51.69,51.69,0,0,1,1089,113.07Z"/><path class="cls-5" d="M303.7,179.78l-2.79,1.17A8.22,8.22,0,0,0,300,179a6.12,6.12,0,0,0-1.3-1.5,5.78,5.78,0,0,0-1.72-1,6.51,6.51,0,0,0-4.34,0,6.24,6.24,0,0,0-1.83,1.1,7.66,7.66,0,0,0-1.41,1.62,10.72,10.72,0,0,0-1,2,11.35,11.35,0,0,0-.6,2.17,12.72,12.72,0,0,0-.2,2.19A14.68,14.68,0,0,0,288,189a9.61,9.61,0,0,0,1.27,3,6.9,6.9,0,0,0,2.26,2.18,6.38,6.38,0,0,0,3.36.84,5.56,5.56,0,0,0,2-.35,6.11,6.11,0,0,0,1.69-1,6.72,6.72,0,0,0,1.33-1.44,7.68,7.68,0,0,0,.91-1.79l2.82,1.12a8.7,8.7,0,0,1-1.69,2.7,9.8,9.8,0,0,1-2.45,1.92,11.78,11.78,0,0,1-2.95,1.14,13.41,13.41,0,0,1-3.17.38,12.86,12.86,0,0,1-3.32-.42,12.38,12.38,0,0,1-3-1.2,11.94,11.94,0,0,1-4.39-4.33,12,12,0,0,1-1.22-2.93,12.84,12.84,0,0,1,0-6.6,12.13,12.13,0,0,1,1.22-2.94,11.88,11.88,0,0,1,4.39-4.34,12.38,12.38,0,0,1,3-1.2,12.86,12.86,0,0,1,3.32-.42,13.6,13.6,0,0,1,3.25.39,11.29,11.29,0,0,1,3,1.18,9.82,9.82,0,0,1,2.44,2A9,9,0,0,1,303.7,179.78Z"/><path class="cls-5" d="M327,187.94a9.35,9.35,0,0,1-.39,2.74,9.59,9.59,0,0,1-1.08,2.37,9.26,9.26,0,0,1-1.67,2,10.37,10.37,0,0,1-2.14,1.47,11.26,11.26,0,0,1-2.49.92,11.61,11.61,0,0,1-5.45,0,11.3,11.3,0,0,1-2.49-.92,10.37,10.37,0,0,1-2.14-1.47,9.26,9.26,0,0,1-1.67-2,9.55,9.55,0,0,1-1.08-2.38,9.75,9.75,0,0,1,0-5.47,9.55,9.55,0,0,1,1.08-2.38,9.26,9.26,0,0,1,1.67-2,10.37,10.37,0,0,1,2.14-1.47,11.37,11.37,0,0,1,5.21-1.25,11.45,11.45,0,0,1,2.73.32,11.26,11.26,0,0,1,2.49.92,10.37,10.37,0,0,1,2.14,1.47,9.26,9.26,0,0,1,1.67,2,9.55,9.55,0,0,1,1.08,2.38A9.38,9.38,0,0,1,327,187.94Zm-5.61,0a16.13,16.13,0,0,0-.09-1.65,11.91,11.91,0,0,0-.3-1.7,8.69,8.69,0,0,0-.58-1.61,5.28,5.28,0,0,0-.9-1.35,4,4,0,0,0-3-1.27,3.79,3.79,0,0,0-1.68.36,4.25,4.25,0,0,0-1.28.95,5.4,5.4,0,0,0-.91,1.37,9.93,9.93,0,0,0-.59,1.61,11.27,11.27,0,0,0-.33,1.69,13.12,13.12,0,0,0,0,3.2,11.49,11.49,0,0,0,.33,1.7,9.58,9.58,0,0,0,.59,1.61,5.45,5.45,0,0,0,.91,1.36,4.25,4.25,0,0,0,1.28.95,3.79,3.79,0,0,0,1.68.36,4,4,0,0,0,1.73-.35,4.16,4.16,0,0,0,1.3-.93,5.18,5.18,0,0,0,.9-1.35,9.29,9.29,0,0,0,.58-1.61,11.41,11.41,0,0,0,.31-1.7A15.9,15.9,0,0,0,321.4,187.94Z"/><path class="cls-5" d="M359.6,186.41a18.91,18.91,0,0,1-.46,4,24,24,0,0,1-1.28,4.08,22.69,22.69,0,0,1-2,3.76,16,16,0,0,1-2.57,3.07l-2.07-1.12a13.42,13.42,0,0,0,.86-1.9q.39-1.06.72-2.22t.57-2.4q.24-1.23.42-2.46t.25-2.38q.08-1.15.08-2.16,0-.57,0-1.23a12.28,12.28,0,0,0-.14-1.33,7.44,7.44,0,0,0-.32-1.27,3.85,3.85,0,0,0-.58-1.09,2.71,2.71,0,0,0-.91-.76,2.81,2.81,0,0,0-1.31-.28,2.07,2.07,0,0,0-1.28.4,3.5,3.5,0,0,0-.9,1,5.84,5.84,0,0,0-.59,1.43,12.63,12.63,0,0,0-.33,1.6q-.11.8-.15,1.53t0,1.23v9.4H342v-8.73q0-.57,0-1.37t0-1.68a15.76,15.76,0,0,0-.21-1.74,5.85,5.85,0,0,0-.49-1.55,3,3,0,0,0-.9-1.11,2.32,2.32,0,0,0-1.43-.43,1.88,1.88,0,0,0-1.23.41,3.28,3.28,0,0,0-.83,1,6.13,6.13,0,0,0-.52,1.44,13.8,13.8,0,0,0-.28,1.61q-.09.8-.11,1.53t0,1.19v9.4h-5.52V178.61h2.12l2,4.37a7.34,7.34,0,0,1,2.16-3.55,5.79,5.79,0,0,1,3.92-1.27,6.76,6.76,0,0,1,3.65.91,6,6,0,0,1,2.28,3,10,10,0,0,1,1.05-1.61,6.47,6.47,0,0,1,1.29-1.22,5.53,5.53,0,0,1,1.57-.77,6.42,6.42,0,0,1,1.91-.27,7.83,7.83,0,0,1,3.28.62,5.89,5.89,0,0,1,2.22,1.73,7,7,0,0,1,1.25,2.62A13.14,13.14,0,0,1,359.6,186.41Z"/><path class="cls-5" d="M362.3,189.33a16.9,16.9,0,0,1,.22-2.66,21.05,21.05,0,0,1,.64-2.76,24.61,24.61,0,0,1,1-2.73,23,23,0,0,1,1.32-2.58h4q-.41,1.22-.73,2.54t-.54,2.65q-.22,1.32-.34,2.59t-.12,2.35q0,.63.06,1.36a12,12,0,0,0,.2,1.44,7.89,7.89,0,0,0,.42,1.39,4.42,4.42,0,0,0,.69,1.18,3.11,3.11,0,0,0,1,.81,3.23,3.23,0,0,0,1.44.3,2.9,2.9,0,0,0,1.46-.37,4,4,0,0,0,1.13-1,5.92,5.92,0,0,0,.83-1.36,10.78,10.78,0,0,0,.56-1.57,12.34,12.34,0,0,0,.33-1.57A10.25,10.25,0,0,0,376,188v-9.4h5.51v18.74h-2.12L376.9,193a9.42,9.42,0,0,1-1.15,2,7.54,7.54,0,0,1-1.54,1.52,6.73,6.73,0,0,1-1.91,1,7.33,7.33,0,0,1-2.27.34,8.46,8.46,0,0,1-3.41-.63,6.61,6.61,0,0,1-2.41-1.75,7.32,7.32,0,0,1-1.43-2.67A11.61,11.61,0,0,1,362.3,189.33Z"/><path class="cls-5" d="M405.39,186.61a18,18,0,0,1-.46,4,24.14,24.14,0,0,1-1.3,4,22.39,22.39,0,0,1-2,3.72,16.14,16.14,0,0,1-2.54,3L397,200.22a15.91,15.91,0,0,0,.83-1.82q.39-1,.71-2.13t.57-2.33q.25-1.2.42-2.38t.26-2.29q.09-1.11.09-2.07,0-.63,0-1.36a10.13,10.13,0,0,0-.2-1.44,9,9,0,0,0-.42-1.39,4,4,0,0,0-.69-1.17,3.34,3.34,0,0,0-1-.81,3.17,3.17,0,0,0-1.44-.31,2.86,2.86,0,0,0-1.45.37,4.1,4.1,0,0,0-1.12,1,6.15,6.15,0,0,0-.84,1.36,10.19,10.19,0,0,0-.57,1.57,11.75,11.75,0,0,0-.42,3v9.4h-5.52V178.61h2.12l2.53,4.37a8.88,8.88,0,0,1,1.14-2,7.64,7.64,0,0,1,1.55-1.53,6.73,6.73,0,0,1,1.91-1,7.33,7.33,0,0,1,2.27-.34,8.46,8.46,0,0,1,3.41.63,6.56,6.56,0,0,1,2.41,1.76,7.4,7.4,0,0,1,1.43,2.68A11.55,11.55,0,0,1,405.39,186.61Z"/><path class="cls-5" d="M414.81,174.08a2.94,2.94,0,0,1-.24,1.17,3,3,0,0,1-1.61,1.6,3,3,0,0,1-1.17.24,2.92,2.92,0,0,1-1.17-.24,3,3,0,0,1-1-.64,3,3,0,0,1-.64-1,2.94,2.94,0,0,1-.24-1.17,2.88,2.88,0,0,1,.24-1.16,3,3,0,0,1,1.6-1.59,2.92,2.92,0,0,1,1.17-.24,3,3,0,0,1,1.17.24,3,3,0,0,1,1.61,1.59A2.88,2.88,0,0,1,414.81,174.08Zm-.24,23.27H409V178.62h5.52Z"/><path class="cls-5" d="M438.14,197.35H436l-2.44-4.07a6.72,6.72,0,0,1-1,1.85,6.8,6.8,0,0,1-1.45,1.42,6.6,6.6,0,0,1-3.89,1.24,9.27,9.27,0,0,1-3.85-.76,8.37,8.37,0,0,1-2.87-2.09,9.14,9.14,0,0,1-1.79-3.11,12.15,12.15,0,0,1,0-7.66,9.05,9.05,0,0,1,1.79-3.1,8.42,8.42,0,0,1,2.87-2.08,9.27,9.27,0,0,1,3.85-.76,7.15,7.15,0,0,1,3,.63,6,6,0,0,1,2.35,2v-9.14h5.51ZM432.6,188a11.54,11.54,0,0,0-.1-1.43,11.87,11.87,0,0,0-.31-1.57,9.64,9.64,0,0,0-.55-1.54,5.71,5.71,0,0,0-.84-1.33,3.91,3.91,0,0,0-1.16-.93,3.17,3.17,0,0,0-1.51-.35,3.52,3.52,0,0,0-2.79,1.23,4.94,4.94,0,0,0-.81,1.29,8.52,8.52,0,0,0-.5,1.53,12.34,12.34,0,0,0-.25,1.6q-.07.8-.07,1.52t.07,1.52a12.34,12.34,0,0,0,.25,1.6,8.75,8.75,0,0,0,.5,1.53,4.9,4.9,0,0,0,.81,1.3,3.52,3.52,0,0,0,2.79,1.23,3.84,3.84,0,0,0,1.63-.32A3.62,3.62,0,0,0,431,194a4.87,4.87,0,0,0,.81-1.28,8.24,8.24,0,0,0,.5-1.53,12.58,12.58,0,0,0,.25-1.61Q432.6,188.73,432.6,188Z"/><path class="cls-5" d="M461.69,197.35h-5.51v-2.24a6.1,6.1,0,0,1-2.35,2,7.07,7.07,0,0,1-3,.64A9.27,9.27,0,0,1,447,197a8.37,8.37,0,0,1-2.87-2.09,9.14,9.14,0,0,1-1.79-3.11,12.15,12.15,0,0,1,0-7.66,9.14,9.14,0,0,1,1.79-3.11,8.37,8.37,0,0,1,2.87-2.09,9.27,9.27,0,0,1,3.85-.76,6.6,6.6,0,0,1,3.89,1.24,6.71,6.71,0,0,1,1.45,1.43,6.85,6.85,0,0,1,1,1.86l2.44-4.07h2.12Zm-5.54-9.41q0-.73-.07-1.54a12.31,12.31,0,0,0-.25-1.61,8.29,8.29,0,0,0-.5-1.52,4.87,4.87,0,0,0-.81-1.28,3.62,3.62,0,0,0-1.2-.88,3.84,3.84,0,0,0-1.63-.32A3.52,3.52,0,0,0,448.9,182a4.94,4.94,0,0,0-.81,1.29,8.52,8.52,0,0,0-.5,1.53,12.34,12.34,0,0,0-.25,1.6q-.07.8-.07,1.52t.07,1.53a12.31,12.31,0,0,0,.25,1.61,8.52,8.52,0,0,0,.5,1.53,4.94,4.94,0,0,0,.81,1.29,3.52,3.52,0,0,0,2.79,1.23,3.17,3.17,0,0,0,1.51-.35,3.91,3.91,0,0,0,1.16-.93,5.71,5.71,0,0,0,.84-1.33,9.64,9.64,0,0,0,.55-1.54,12.19,12.19,0,0,0,.41-3Z"/><path class="cls-5" d="M485.25,197.35h-2.12l-2.44-4.07a6.72,6.72,0,0,1-1,1.85,6.8,6.8,0,0,1-1.45,1.42,6.6,6.6,0,0,1-3.89,1.24,9.27,9.27,0,0,1-3.85-.76,8.37,8.37,0,0,1-2.87-2.09,9.14,9.14,0,0,1-1.79-3.11,12.15,12.15,0,0,1,0-7.66,9.05,9.05,0,0,1,1.79-3.1,8.42,8.42,0,0,1,2.87-2.08,9.27,9.27,0,0,1,3.85-.76,7.15,7.15,0,0,1,3,.63,6,6,0,0,1,2.35,2v-9.14h5.51ZM479.71,188a11.54,11.54,0,0,0-.1-1.43,11.87,11.87,0,0,0-.31-1.57,9.64,9.64,0,0,0-.55-1.54,5.71,5.71,0,0,0-.84-1.33,3.91,3.91,0,0,0-1.16-.93,3.17,3.17,0,0,0-1.51-.35,3.52,3.52,0,0,0-2.79,1.23,4.94,4.94,0,0,0-.81,1.29,8.52,8.52,0,0,0-.5,1.53,12.34,12.34,0,0,0-.25,1.6q-.07.8-.07,1.52t.07,1.52a12.34,12.34,0,0,0,.25,1.6,8.75,8.75,0,0,0,.5,1.53,4.9,4.9,0,0,0,.81,1.3,3.52,3.52,0,0,0,2.79,1.23,3.84,3.84,0,0,0,1.63-.32,3.62,3.62,0,0,0,1.2-.88,4.87,4.87,0,0,0,.81-1.28,8.24,8.24,0,0,0,.5-1.53,12.58,12.58,0,0,0,.25-1.61Q479.71,188.73,479.71,188Z"/><path class="cls-5" d="M508,184.76a5.3,5.3,0,0,1-.37,2.05,5.18,5.18,0,0,1-1,1.58,6.14,6.14,0,0,1-1.49,1.15,9.61,9.61,0,0,1-1.81.77,11.52,11.52,0,0,1-2,.43,15.61,15.61,0,0,1-2,.13,17,17,0,0,1-2.41-.17,14.17,14.17,0,0,1-2.35-.54,9.66,9.66,0,0,0,.57,2,5.67,5.67,0,0,0,1,1.69,4.69,4.69,0,0,0,1.61,1.14,5.54,5.54,0,0,0,2.26.42,5.19,5.19,0,0,0,1.65-.26,5.25,5.25,0,0,0,1.43-.73,5.51,5.51,0,0,0,1.15-1.12,5.84,5.84,0,0,0,.81-1.44l2.38.88A6.8,6.8,0,0,1,506,195a8.49,8.49,0,0,1-2.12,1.54,10.27,10.27,0,0,1-2.51.9,12.22,12.22,0,0,1-2.63.29,10.72,10.72,0,0,1-4-.72,9.14,9.14,0,0,1-5.21-5.12,10.75,10.75,0,0,1,0-7.89,9.14,9.14,0,0,1,5.21-5.12,10.72,10.72,0,0,1,4-.72,16.09,16.09,0,0,1,2.13.15,13.06,13.06,0,0,1,2.12.46,10.29,10.29,0,0,1,1.94.82,6.17,6.17,0,0,1,1.59,1.24,5.74,5.74,0,0,1,1.08,1.71A5.81,5.81,0,0,1,508,184.76Zm-13.57,3.7q1,.23,2,.36a15.93,15.93,0,0,0,2,.13,9.26,9.26,0,0,0,2-.2,4.36,4.36,0,0,0,1.6-.68,3.33,3.33,0,0,0,1.07-1.27,4.47,4.47,0,0,0,.39-2,5.6,5.6,0,0,0-.26-1.75,3.74,3.74,0,0,0-.77-1.36,3.52,3.52,0,0,0-1.26-.88,4.46,4.46,0,0,0-1.74-.32,4,4,0,0,0-1.67.34,4.33,4.33,0,0,0-1.3.92,5.66,5.66,0,0,0-1,1.34,9.69,9.69,0,0,0-.66,1.59,10,10,0,0,0-.37,1.67,11.94,11.94,0,0,0-.11,1.59v.26A2.12,2.12,0,0,0,494.38,188.46Z"/><path class="cls-5" d="M532.05,197.35h-6.47V177h-6.39v-3h19.24v3h-6.39Z"/><path class="cls-5" d="M557.57,184.76a5.3,5.3,0,0,1-.37,2.05,5.18,5.18,0,0,1-1,1.58,6.14,6.14,0,0,1-1.49,1.15,9.61,9.61,0,0,1-1.81.77,11.52,11.52,0,0,1-2,.43,15.61,15.61,0,0,1-2,.13,17,17,0,0,1-2.41-.17,14.17,14.17,0,0,1-2.35-.54,9.66,9.66,0,0,0,.57,2,5.67,5.67,0,0,0,1,1.69,4.69,4.69,0,0,0,1.61,1.14,5.54,5.54,0,0,0,2.26.42,5.19,5.19,0,0,0,1.65-.26,5.25,5.25,0,0,0,1.43-.73,5.51,5.51,0,0,0,1.15-1.12,5.84,5.84,0,0,0,.81-1.44l2.38.88a6.8,6.8,0,0,1-1.47,2.22,8.49,8.49,0,0,1-2.12,1.54,10.27,10.27,0,0,1-2.51.9,12.22,12.22,0,0,1-2.63.29,10.72,10.72,0,0,1-4-.72,9.14,9.14,0,0,1-5.21-5.12,10.75,10.75,0,0,1,0-7.89,9.14,9.14,0,0,1,5.21-5.12,10.72,10.72,0,0,1,4-.72,16.09,16.09,0,0,1,2.13.15,13.06,13.06,0,0,1,2.12.46,10.29,10.29,0,0,1,1.94.82,6.17,6.17,0,0,1,1.59,1.24,5.74,5.74,0,0,1,1.08,1.71A5.81,5.81,0,0,1,557.57,184.76ZM544,188.46q1,.23,2,.36a15.93,15.93,0,0,0,2,.13,9.26,9.26,0,0,0,2-.2,4.36,4.36,0,0,0,1.6-.68,3.33,3.33,0,0,0,1.07-1.27,4.47,4.47,0,0,0,.39-2,5.6,5.6,0,0,0-.26-1.75,3.74,3.74,0,0,0-.77-1.36,3.52,3.52,0,0,0-1.26-.88,4.46,4.46,0,0,0-1.74-.32,4,4,0,0,0-1.67.34,4.33,4.33,0,0,0-1.3.92,5.66,5.66,0,0,0-1,1.34,9.69,9.69,0,0,0-.66,1.59,10,10,0,0,0-.37,1.67,11.94,11.94,0,0,0-.11,1.59v.26A2.12,2.12,0,0,0,544,188.46Z"/><path class="cls-5" d="M578.38,183.25l-2.38.94a5.2,5.2,0,0,0-1.91-2.74,5.36,5.36,0,0,0-3.21-1,4.81,4.81,0,0,0-1.8.32,4.45,4.45,0,0,0-1.39.87,5.32,5.32,0,0,0-1,1.28,8,8,0,0,0-.68,1.56,9.9,9.9,0,0,0-.37,1.71,13.43,13.43,0,0,0-.11,1.71,16.84,16.84,0,0,0,.1,1.8,10.57,10.57,0,0,0,.33,1.74,7.58,7.58,0,0,0,.63,1.56,4.67,4.67,0,0,0,1,1.26,4.4,4.4,0,0,0,1.42.84,5.4,5.4,0,0,0,1.9.31,5.19,5.19,0,0,0,1.65-.26,5.25,5.25,0,0,0,1.43-.73,5.67,5.67,0,0,0,1.16-1.12,5.36,5.36,0,0,0,.8-1.44l2.4.88a7.24,7.24,0,0,1-1.43,2.22,8.06,8.06,0,0,1-2,1.54,9.42,9.42,0,0,1-2.41.9,11.74,11.74,0,0,1-2.61.29,10.67,10.67,0,0,1-4-.72,9.22,9.22,0,0,1-5.23-5.13,10.11,10.11,0,0,1-.75-3.94,10.3,10.3,0,0,1,.74-4,9.05,9.05,0,0,1,5.21-5.11,10.86,10.86,0,0,1,4-.71,11.86,11.86,0,0,1,2.67.3,9.12,9.12,0,0,1,2.42.92,8.15,8.15,0,0,1,2,1.58A7.4,7.4,0,0,1,578.38,183.25Z"/><path class="cls-5" d="M600.88,186.61a18,18,0,0,1-.46,4,24.14,24.14,0,0,1-1.3,4,22.39,22.39,0,0,1-2,3.72,16.14,16.14,0,0,1-2.54,3l-2.07-1.12a15.91,15.91,0,0,0,.83-1.82q.39-1,.71-2.13t.57-2.33q.25-1.2.42-2.38t.26-2.29q.09-1.11.09-2.07,0-.63,0-1.36a10.13,10.13,0,0,0-.2-1.44,9,9,0,0,0-.42-1.39,4,4,0,0,0-.69-1.17,3.34,3.34,0,0,0-1-.81,3.17,3.17,0,0,0-1.44-.31,2.86,2.86,0,0,0-1.45.37,4.1,4.1,0,0,0-1.12,1,6.15,6.15,0,0,0-.84,1.36,10.19,10.19,0,0,0-.57,1.57,11.75,11.75,0,0,0-.42,3v9.4h-5.52V178.61h2.12l2.53,4.37a8.88,8.88,0,0,1,1.14-2,7.64,7.64,0,0,1,1.55-1.53,6.73,6.73,0,0,1,1.91-1,7.33,7.33,0,0,1,2.27-.34,8.46,8.46,0,0,1,3.41.63,6.56,6.56,0,0,1,2.41,1.76,7.4,7.4,0,0,1,1.43,2.68A11.55,11.55,0,0,1,600.88,186.61Z"/><path class="cls-5" d="M624.4,187.94a9.35,9.35,0,0,1-.39,2.74,9.59,9.59,0,0,1-1.08,2.37,9.26,9.26,0,0,1-1.67,2,10.37,10.37,0,0,1-2.14,1.47,11.26,11.26,0,0,1-2.49.92,11.61,11.61,0,0,1-5.45,0,11.3,11.3,0,0,1-2.49-.92,10.37,10.37,0,0,1-2.14-1.47,9.26,9.26,0,0,1-1.67-2,9.55,9.55,0,0,1-1.08-2.38,9.75,9.75,0,0,1,0-5.47,9.55,9.55,0,0,1,1.08-2.38,9.26,9.26,0,0,1,1.67-2,10.37,10.37,0,0,1,2.14-1.47,11.37,11.37,0,0,1,5.21-1.25,11.45,11.45,0,0,1,2.73.32,11.26,11.26,0,0,1,2.49.92,10.37,10.37,0,0,1,2.14,1.47,9.26,9.26,0,0,1,1.67,2A9.55,9.55,0,0,1,624,185.2,9.38,9.38,0,0,1,624.4,187.94Zm-5.61,0a16.13,16.13,0,0,0-.09-1.65,11.91,11.91,0,0,0-.3-1.7,8.69,8.69,0,0,0-.58-1.61,5.28,5.28,0,0,0-.9-1.35,4,4,0,0,0-3-1.27,3.79,3.79,0,0,0-1.68.36,4.25,4.25,0,0,0-1.28.95A5.4,5.4,0,0,0,610,183a9.93,9.93,0,0,0-.59,1.61,11.27,11.27,0,0,0-.33,1.69,13.12,13.12,0,0,0,0,3.2,11.49,11.49,0,0,0,.33,1.7,9.58,9.58,0,0,0,.59,1.61,5.45,5.45,0,0,0,.91,1.36,4.25,4.25,0,0,0,1.28.95,3.79,3.79,0,0,0,1.68.36,4,4,0,0,0,1.73-.35,4.16,4.16,0,0,0,1.3-.93,5.18,5.18,0,0,0,.9-1.35,9.29,9.29,0,0,0,.58-1.61,11.41,11.41,0,0,0,.31-1.7A15.9,15.9,0,0,0,618.79,187.94Z"/><path class="cls-5" d="M633.38,197.35h-5.51V170H630l3.39,5.7Z"/><path class="cls-5" d="M657.85,187.94a9.35,9.35,0,0,1-.39,2.74,9.57,9.57,0,0,1-1.08,2.37,9.24,9.24,0,0,1-1.67,2,10.36,10.36,0,0,1-2.14,1.47,11.25,11.25,0,0,1-2.49.92,11.61,11.61,0,0,1-5.45,0,11.32,11.32,0,0,1-2.49-.92A10.38,10.38,0,0,1,640,195a9.26,9.26,0,0,1-1.67-2,9.55,9.55,0,0,1-1.08-2.38,9.75,9.75,0,0,1,0-5.47,9.55,9.55,0,0,1,1.08-2.38,9.26,9.26,0,0,1,1.67-2,10.38,10.38,0,0,1,2.14-1.47,11.38,11.38,0,0,1,5.21-1.25,11.46,11.46,0,0,1,2.73.32,11.25,11.25,0,0,1,2.49.92,10.36,10.36,0,0,1,2.14,1.47,9.24,9.24,0,0,1,1.67,2,9.53,9.53,0,0,1,1.08,2.38A9.38,9.38,0,0,1,657.85,187.94Zm-5.61,0a16.3,16.3,0,0,0-.09-1.65,11.91,11.91,0,0,0-.3-1.7,8.83,8.83,0,0,0-.58-1.61,5.32,5.32,0,0,0-.91-1.35,4,4,0,0,0-3-1.27,3.79,3.79,0,0,0-1.68.36,4.26,4.26,0,0,0-1.28.95,5.45,5.45,0,0,0-.91,1.37,10,10,0,0,0-.59,1.61,11.35,11.35,0,0,0-.33,1.69,13.12,13.12,0,0,0,0,3.2,11.57,11.57,0,0,0,.33,1.7,9.63,9.63,0,0,0,.59,1.61,5.5,5.5,0,0,0,.91,1.36,4.26,4.26,0,0,0,1.28.95,3.79,3.79,0,0,0,1.68.36,4,4,0,0,0,1.73-.35,4.16,4.16,0,0,0,1.3-.93,5.21,5.21,0,0,0,.9-1.35,9.13,9.13,0,0,0,.58-1.61,11.34,11.34,0,0,0,.31-1.7A16.07,16.07,0,0,0,652.25,187.94Zm2.17-17-5.17,5.74H646l3.23-5.74Z"/><path class="cls-5" d="M680.27,195.09a13.12,13.12,0,0,1-.67,4.22,10.35,10.35,0,0,1-1.94,3.46,9.18,9.18,0,0,1-3.12,2.35,9.8,9.8,0,0,1-4.21.87,12.24,12.24,0,0,1-2.63-.29,10.29,10.29,0,0,1-2.51-.9,8.52,8.52,0,0,1-2.12-1.54,6.85,6.85,0,0,1-1.47-2.2l2.38-.89a6.16,6.16,0,0,0,.81,1.46,5.44,5.44,0,0,0,1.15,1.14,5.33,5.33,0,0,0,1.43.75,5,5,0,0,0,1.65.27,5.18,5.18,0,0,0,2.73-.67,5.25,5.25,0,0,0,1.77-1.74,7.58,7.58,0,0,0,1-2.43,13,13,0,0,0,.29-2.75v-1.1a6.11,6.11,0,0,1-2.35,2,7.08,7.08,0,0,1-3,.64,9.27,9.27,0,0,1-3.85-.76,8.38,8.38,0,0,1-2.87-2.09,9.13,9.13,0,0,1-1.79-3.11,12.15,12.15,0,0,1,0-7.66,9.13,9.13,0,0,1,1.79-3.11,8.38,8.38,0,0,1,2.87-2.09,9.27,9.27,0,0,1,3.85-.76,6.59,6.59,0,0,1,3.89,1.24,6.71,6.71,0,0,1,1.45,1.43,6.88,6.88,0,0,1,1,1.86l2.44-4.07h2.12Zm-5.54-7.16q0-.73-.07-1.54a12.64,12.64,0,0,0-.25-1.61,8.34,8.34,0,0,0-.5-1.52,4.92,4.92,0,0,0-.81-1.28,3.62,3.62,0,0,0-1.2-.88,3.84,3.84,0,0,0-1.63-.32,3.52,3.52,0,0,0-2.79,1.23,4.91,4.91,0,0,0-.81,1.29,8.37,8.37,0,0,0-.5,1.53,12.23,12.23,0,0,0-.25,1.6q-.08.8-.07,1.52t.07,1.53a12.2,12.2,0,0,0,.25,1.61,8.37,8.37,0,0,0,.5,1.53,4.91,4.91,0,0,0,.81,1.29,3.52,3.52,0,0,0,2.79,1.23,3.17,3.17,0,0,0,1.51-.35,3.91,3.91,0,0,0,1.16-.93,5.73,5.73,0,0,0,.84-1.33,9.7,9.7,0,0,0,.55-1.54,12.19,12.19,0,0,0,.41-3Z"/><path class="cls-5" d="M690.65,174.08a3,3,0,0,1-.24,1.17,3,3,0,0,1-1.61,1.6,3,3,0,0,1-1.17.24,2.91,2.91,0,0,1-1.16-.24,3,3,0,0,1-1-.64,3,3,0,0,1-.64-1,2.93,2.93,0,0,1-.24-1.17,2.87,2.87,0,0,1,.24-1.16,3,3,0,0,1,.64-.95,3,3,0,0,1,1-.64,2.91,2.91,0,0,1,1.16-.24,3,3,0,0,1,1.17.24,3,3,0,0,1,1.61,1.59A2.89,2.89,0,0,1,690.65,174.08Zm-.24,23.27h-5.52V178.62h5.52Z"/><path class="cls-5" d="M712.39,183.25l-2.38.94a5.19,5.19,0,0,0-1.91-2.74,5.36,5.36,0,0,0-3.21-1,4.82,4.82,0,0,0-1.8.32,4.44,4.44,0,0,0-1.38.87,5.28,5.28,0,0,0-1,1.28,8,8,0,0,0-.68,1.56,9.9,9.9,0,0,0-.37,1.71,13.31,13.31,0,0,0-.11,1.71,16.84,16.84,0,0,0,.1,1.8,10.64,10.64,0,0,0,.33,1.74,7.62,7.62,0,0,0,.63,1.56,4.66,4.66,0,0,0,1,1.26,4.39,4.39,0,0,0,1.42.84,5.4,5.4,0,0,0,1.9.31,5.2,5.2,0,0,0,1.65-.26,5.26,5.26,0,0,0,1.43-.73,5.67,5.67,0,0,0,1.16-1.12,5.34,5.34,0,0,0,.8-1.44l2.4.88A7.25,7.25,0,0,1,710.9,195a8.07,8.07,0,0,1-2,1.54,9.41,9.41,0,0,1-2.41.9,11.75,11.75,0,0,1-2.61.29,10.67,10.67,0,0,1-4-.72,9.22,9.22,0,0,1-5.23-5.13,10.1,10.1,0,0,1-.75-3.94,10.29,10.29,0,0,1,.74-4,9.05,9.05,0,0,1,5.21-5.11,10.86,10.86,0,0,1,4-.71,11.86,11.86,0,0,1,2.67.3,9.12,9.12,0,0,1,2.42.92,8.15,8.15,0,0,1,2,1.58A7.41,7.41,0,0,1,712.39,183.25Z"/><path class="cls-5" d="M734.6,197.35h-5.51v-2.24a6.11,6.11,0,0,1-2.35,2,7.08,7.08,0,0,1-3,.64,9.27,9.27,0,0,1-3.85-.76,8.38,8.38,0,0,1-2.87-2.09,9.13,9.13,0,0,1-1.79-3.11,12.15,12.15,0,0,1,0-7.66A9.13,9.13,0,0,1,717,181a8.38,8.38,0,0,1,2.87-2.09,9.27,9.27,0,0,1,3.85-.76,6.59,6.59,0,0,1,3.89,1.24,6.71,6.71,0,0,1,1.45,1.43,6.88,6.88,0,0,1,1,1.86l2.44-4.07h2.12Zm-5.54-9.41q0-.73-.07-1.54a12.64,12.64,0,0,0-.25-1.61,8.34,8.34,0,0,0-.5-1.52,4.92,4.92,0,0,0-.81-1.28,3.62,3.62,0,0,0-1.2-.88,3.84,3.84,0,0,0-1.63-.32,3.52,3.52,0,0,0-2.79,1.23,4.91,4.91,0,0,0-.81,1.29,8.37,8.37,0,0,0-.5,1.53,12.23,12.23,0,0,0-.25,1.6q-.08.8-.07,1.52t.07,1.53a12.2,12.2,0,0,0,.25,1.61,8.37,8.37,0,0,0,.5,1.53,4.91,4.91,0,0,0,.81,1.29,3.52,3.52,0,0,0,2.79,1.23,3.17,3.17,0,0,0,1.51-.35,3.91,3.91,0,0,0,1.16-.93,5.73,5.73,0,0,0,.84-1.33,9.7,9.7,0,0,0,.55-1.54,12.19,12.19,0,0,0,.41-3Z"/><path class="cls-5" d="M767.62,197.35H765.5l-2.44-4.07a6.72,6.72,0,0,1-1,1.85,6.79,6.79,0,0,1-1.45,1.42,6.61,6.61,0,0,1-3.89,1.24,9.27,9.27,0,0,1-3.85-.76,8.38,8.38,0,0,1-2.87-2.09,9.13,9.13,0,0,1-1.79-3.11,12.15,12.15,0,0,1,0-7.66,9,9,0,0,1,1.79-3.1,8.43,8.43,0,0,1,2.87-2.08,9.27,9.27,0,0,1,3.85-.76,7.15,7.15,0,0,1,3,.63,6,6,0,0,1,2.36,2v-9.14h5.51ZM762.08,188a11.54,11.54,0,0,0-.1-1.43,11.77,11.77,0,0,0-.31-1.57,9.7,9.7,0,0,0-.55-1.54,5.69,5.69,0,0,0-.84-1.33,3.91,3.91,0,0,0-1.16-.93,3.18,3.18,0,0,0-1.51-.35,3.52,3.52,0,0,0-2.79,1.23,5,5,0,0,0-.81,1.29,8.57,8.57,0,0,0-.5,1.53,12.67,12.67,0,0,0-.25,1.6q-.07.8-.07,1.52t.07,1.52a12.67,12.67,0,0,0,.25,1.6,8.8,8.8,0,0,0,.5,1.53,4.93,4.93,0,0,0,.81,1.3,3.52,3.52,0,0,0,2.79,1.23,3.84,3.84,0,0,0,1.63-.32,3.6,3.6,0,0,0,1.2-.88,4.82,4.82,0,0,0,.81-1.28,8.1,8.1,0,0,0,.5-1.53,12.47,12.47,0,0,0,.25-1.61Q762.08,188.73,762.08,188Z"/><path class="cls-5" d="M790.32,184.76a5.31,5.31,0,0,1-.37,2.05,5.16,5.16,0,0,1-1,1.58,6.11,6.11,0,0,1-1.49,1.15,9.64,9.64,0,0,1-1.81.77,11.5,11.5,0,0,1-2,.43,15.6,15.6,0,0,1-2,.13,17,17,0,0,1-2.41-.17,14.14,14.14,0,0,1-2.35-.54,9.62,9.62,0,0,0,.57,2,5.66,5.66,0,0,0,1,1.69,4.7,4.7,0,0,0,1.6,1.14,5.55,5.55,0,0,0,2.26.42,5.2,5.2,0,0,0,1.65-.26,5.26,5.26,0,0,0,1.43-.73,5.47,5.47,0,0,0,1.15-1.12,5.84,5.84,0,0,0,.81-1.44l2.38.88a6.81,6.81,0,0,1-1.47,2.22,8.52,8.52,0,0,1-2.12,1.54,10.29,10.29,0,0,1-2.51.9,12.24,12.24,0,0,1-2.63.29,10.72,10.72,0,0,1-4-.72,9.14,9.14,0,0,1-5.21-5.12,10.75,10.75,0,0,1,0-7.89,9.14,9.14,0,0,1,5.21-5.12,10.72,10.72,0,0,1,4-.72,16.09,16.09,0,0,1,2.13.15,13,13,0,0,1,2.12.46,10.27,10.27,0,0,1,1.94.82,6.19,6.19,0,0,1,1.59,1.24,5.76,5.76,0,0,1,1.08,1.71A5.83,5.83,0,0,1,790.32,184.76Zm-13.57,3.7q1,.23,2,.36a15.92,15.92,0,0,0,2,.13,9.25,9.25,0,0,0,2-.2,4.35,4.35,0,0,0,1.6-.68,3.32,3.32,0,0,0,1.07-1.27,4.47,4.47,0,0,0,.39-2,5.59,5.59,0,0,0-.26-1.75,3.73,3.73,0,0,0-.77-1.36,3.5,3.5,0,0,0-1.26-.88,4.46,4.46,0,0,0-1.74-.32,4,4,0,0,0-1.67.34,4.31,4.31,0,0,0-1.3.92,5.64,5.64,0,0,0-1,1.34,9.8,9.8,0,0,0-.66,1.59,10,10,0,0,0-.37,1.67,11.83,11.83,0,0,0-.11,1.59v.26A2,2,0,0,0,776.74,188.46Z"/><path class="cls-5" d="M810,197.35h-6.47V174H815.1a12.85,12.85,0,0,1,3.15.38,8,8,0,0,1,2.68,1.2,6,6,0,0,1,1.86,2.12,6.6,6.6,0,0,1,.69,3.15,6.22,6.22,0,0,1-.61,2.72,8,8,0,0,1-1.63,2.27,9.33,9.33,0,0,1-5.08,2.52q.64,1.07,1.33,2t1.4,1.79q.71.84,1.41,1.54t1.34,1.29a26.28,26.28,0,0,0,3,2.35h-8.07a13.36,13.36,0,0,1-1.86-2.22,19.72,19.72,0,0,1-1.51-2.73,16.16,16.16,0,0,1-1.16-3.77h-2Zm6.88-16.52a4.61,4.61,0,0,0-1.15-3.46,4.8,4.8,0,0,0-3.45-1.1H810v10.14h2.28a4.41,4.41,0,0,0,2.09-.46,4.09,4.09,0,0,0,1.43-1.23,5.28,5.28,0,0,0,.81-1.78A8.36,8.36,0,0,0,816.91,180.83Z"/><path class="cls-5" d="M832.93,174.08a3,3,0,0,1-.24,1.17,3,3,0,0,1-1.61,1.6,3,3,0,0,1-1.17.24,2.91,2.91,0,0,1-1.16-.24,3,3,0,0,1-1-.64,3,3,0,0,1-.64-1,2.93,2.93,0,0,1-.24-1.17,2.87,2.87,0,0,1,.24-1.16,3,3,0,0,1,.64-.95,3,3,0,0,1,1-.64,2.91,2.91,0,0,1,1.16-.24,3,3,0,0,1,1.17.24,3,3,0,0,1,1.61,1.59A2.89,2.89,0,0,1,832.93,174.08Zm-.24,23.27h-5.52V178.62h5.52Z"/><path class="cls-5" d="M857.31,188a11.62,11.62,0,0,1-.62,3.83,9.13,9.13,0,0,1-1.79,3.11A8.38,8.38,0,0,1,852,197a9.27,9.27,0,0,1-3.85.76,6.61,6.61,0,0,1-3.89-1.24,6.79,6.79,0,0,1-1.45-1.42,6.72,6.72,0,0,1-1-1.85l-2.44,4.07H837.3V171.71h5.51v9.14a6,6,0,0,1,2.36-2,7.15,7.15,0,0,1,3-.63A9.27,9.27,0,0,1,852,179a8.43,8.43,0,0,1,2.87,2.08,9,9,0,0,1,1.79,3.1A11.62,11.62,0,0,1,857.31,188Zm-5.59,0q0-.71-.07-1.52a12.67,12.67,0,0,0-.25-1.6,8.57,8.57,0,0,0-.5-1.53,5,5,0,0,0-.81-1.29,3.52,3.52,0,0,0-2.79-1.23,3.18,3.18,0,0,0-1.51.35,3.91,3.91,0,0,0-1.16.93,5.69,5.69,0,0,0-.84,1.33,9.7,9.7,0,0,0-.55,1.54,11.77,11.77,0,0,0-.31,1.57,11.54,11.54,0,0,0-.1,1.43q0,.73.07,1.54a12.47,12.47,0,0,0,.25,1.61,8.1,8.1,0,0,0,.5,1.53,4.82,4.82,0,0,0,.81,1.28,3.63,3.63,0,0,0,1.19.88,3.83,3.83,0,0,0,1.64.32,3.55,3.55,0,0,0,2.79-1.23,4.93,4.93,0,0,0,.81-1.3,8.8,8.8,0,0,0,.5-1.53,12.67,12.67,0,0,0,.25-1.6Q851.72,188.72,851.72,188Z"/><path class="cls-5" d="M879,184.76a5.31,5.31,0,0,1-.37,2.05,5.16,5.16,0,0,1-1,1.58,6.11,6.11,0,0,1-1.49,1.15,9.64,9.64,0,0,1-1.81.77,11.5,11.5,0,0,1-2,.43,15.6,15.6,0,0,1-2,.13,17,17,0,0,1-2.41-.17,14.14,14.14,0,0,1-2.35-.54,9.62,9.62,0,0,0,.57,2,5.66,5.66,0,0,0,1,1.69,4.7,4.7,0,0,0,1.6,1.14,5.55,5.55,0,0,0,2.26.42,5.2,5.2,0,0,0,1.65-.26,5.26,5.26,0,0,0,1.43-.73,5.47,5.47,0,0,0,1.15-1.12,5.84,5.84,0,0,0,.81-1.44l2.38.88A6.81,6.81,0,0,1,877,195a8.52,8.52,0,0,1-2.12,1.54,10.29,10.29,0,0,1-2.51.9,12.24,12.24,0,0,1-2.63.29,10.72,10.72,0,0,1-4-.72,9.14,9.14,0,0,1-5.21-5.12,10.75,10.75,0,0,1,0-7.89,9.14,9.14,0,0,1,5.21-5.12,10.72,10.72,0,0,1,4-.72,16.09,16.09,0,0,1,2.13.15,13,13,0,0,1,2.12.46,10.27,10.27,0,0,1,1.94.82,6.19,6.19,0,0,1,1.59,1.24,5.76,5.76,0,0,1,1.08,1.71A5.83,5.83,0,0,1,879,184.76Zm-13.57,3.7q1,.23,2,.36a15.92,15.92,0,0,0,2,.13,9.25,9.25,0,0,0,2-.2,4.35,4.35,0,0,0,1.6-.68,3.32,3.32,0,0,0,1.07-1.27,4.47,4.47,0,0,0,.39-2,5.59,5.59,0,0,0-.26-1.75,3.73,3.73,0,0,0-.77-1.36,3.5,3.5,0,0,0-1.26-.88,4.46,4.46,0,0,0-1.74-.32,4,4,0,0,0-1.67.34,4.31,4.31,0,0,0-1.3.92,5.64,5.64,0,0,0-1,1.34,9.8,9.8,0,0,0-.66,1.59,10,10,0,0,0-.37,1.67,11.83,11.83,0,0,0-.11,1.59v.26A2,2,0,0,0,865.39,188.46Z"/><path class="cls-5" d="M888.19,174.08a3,3,0,0,1-.24,1.17,3,3,0,0,1-1.61,1.6,3,3,0,0,1-1.17.24,2.91,2.91,0,0,1-1.16-.24,3,3,0,0,1-1-.64,3,3,0,0,1-.64-1,2.93,2.93,0,0,1-.24-1.17,2.87,2.87,0,0,1,.24-1.16,3,3,0,0,1,.64-.95,3,3,0,0,1,1-.64,2.91,2.91,0,0,1,1.16-.24,3,3,0,0,1,1.17.24,3,3,0,0,1,1.61,1.59A2.89,2.89,0,0,1,888.19,174.08Zm-.24,23.27h-5.52V178.62h5.52Z"/><path class="cls-5" d="M908.56,180.26l-3.1,5.11q-.2-.65-.51-1.46a8.11,8.11,0,0,0-.77-1.52,4.58,4.58,0,0,0-1.09-1.18,2.37,2.37,0,0,0-1.47-.48,2.28,2.28,0,0,0-1.33.39,3.44,3.44,0,0,0-1,1,6.27,6.27,0,0,0-.64,1.41,11.85,11.85,0,0,0-.39,1.59,15.08,15.08,0,0,0-.19,1.54q0,.74,0,1.27v9.4h-5.52V178.61h2.12L896.9,183a12.45,12.45,0,0,1,1-1.94,7.08,7.08,0,0,1,1.35-1.53,5.79,5.79,0,0,1,1.74-1,6.31,6.31,0,0,1,2.19-.36,10.66,10.66,0,0,1,1.42.11,8.29,8.29,0,0,1,1.53.36,6.28,6.28,0,0,1,1.39.66A3.1,3.1,0,0,1,908.56,180.26Z"/><path class="cls-5" d="M929.43,197.35h-5.51v-2.24a6.11,6.11,0,0,1-2.35,2,7.08,7.08,0,0,1-3,.64,9.27,9.27,0,0,1-3.85-.76,8.38,8.38,0,0,1-2.87-2.09,9.13,9.13,0,0,1-1.79-3.11,12.15,12.15,0,0,1,0-7.66,9.13,9.13,0,0,1,1.79-3.11,8.38,8.38,0,0,1,2.87-2.09,9.27,9.27,0,0,1,3.85-.76,6.59,6.59,0,0,1,3.89,1.24,6.71,6.71,0,0,1,1.45,1.43,6.88,6.88,0,0,1,1,1.86l2.44-4.07h2.12ZM925.76,172a9.3,9.3,0,0,1-.31,1.7,6.26,6.26,0,0,1-.71,1.65,4.19,4.19,0,0,1-1.16,1.25,2.81,2.81,0,0,1-1.66.49,5.78,5.78,0,0,1-1.74-.24,10.7,10.7,0,0,1-1.4-.54l-1.14-.54a2.26,2.26,0,0,0-1-.24.76.76,0,0,0-.49.15,1.27,1.27,0,0,0-.33.39,1.79,1.79,0,0,0-.19.51,2.52,2.52,0,0,0-.06.52h-2.53a7.79,7.79,0,0,1,.28-1.74,6,6,0,0,1,.72-1.65,4.07,4.07,0,0,1,1.19-1.23A3,3,0,0,1,917,172a5.49,5.49,0,0,1,1.65.24,13.76,13.76,0,0,1,1.42.53l1.16.53a2.13,2.13,0,0,0,.89.24.78.78,0,0,0,.48-.15,1.18,1.18,0,0,0,.33-.38,2.12,2.12,0,0,0,.19-.5,2.18,2.18,0,0,0,.07-.5Zm-1.87,16q0-.73-.07-1.54a12.64,12.64,0,0,0-.25-1.61,8.34,8.34,0,0,0-.5-1.52,4.92,4.92,0,0,0-.81-1.28,3.62,3.62,0,0,0-1.2-.88,3.84,3.84,0,0,0-1.63-.32,3.52,3.52,0,0,0-2.79,1.23,4.91,4.91,0,0,0-.81,1.29,8.37,8.37,0,0,0-.5,1.53,12.23,12.23,0,0,0-.25,1.6q-.08.8-.07,1.52t.07,1.53a12.2,12.2,0,0,0,.25,1.61,8.37,8.37,0,0,0,.5,1.53,4.91,4.91,0,0,0,.81,1.29,3.52,3.52,0,0,0,2.79,1.23,3.17,3.17,0,0,0,1.51-.35,3.91,3.91,0,0,0,1.16-.93,5.73,5.73,0,0,0,.84-1.33,9.7,9.7,0,0,0,.55-1.54,12.19,12.19,0,0,0,.41-3Z"/><path class="cls-5" d="M953.91,187.94a9.35,9.35,0,0,1-.39,2.74,9.57,9.57,0,0,1-1.08,2.37,9.24,9.24,0,0,1-1.67,2,10.36,10.36,0,0,1-2.14,1.47,11.25,11.25,0,0,1-2.49.92,11.61,11.61,0,0,1-5.45,0,11.32,11.32,0,0,1-2.49-.92A10.38,10.38,0,0,1,936,195a9.28,9.28,0,0,1-1.67-2,9.58,9.58,0,0,1-1.08-2.38,9.75,9.75,0,0,1,0-5.47,9.58,9.58,0,0,1,1.08-2.38,9.28,9.28,0,0,1,1.67-2,10.38,10.38,0,0,1,2.14-1.47,11.38,11.38,0,0,1,5.21-1.25,11.46,11.46,0,0,1,2.73.32,11.25,11.25,0,0,1,2.49.92,10.36,10.36,0,0,1,2.14,1.47,9.24,9.24,0,0,1,1.67,2,9.53,9.53,0,0,1,1.08,2.38A9.38,9.38,0,0,1,953.91,187.94Zm-5.61,0a16.3,16.3,0,0,0-.09-1.65,11.91,11.91,0,0,0-.3-1.7,8.83,8.83,0,0,0-.58-1.61,5.32,5.32,0,0,0-.91-1.35,4,4,0,0,0-3-1.27,3.79,3.79,0,0,0-1.68.36,4.26,4.26,0,0,0-1.28.95,5.45,5.45,0,0,0-.91,1.37,10,10,0,0,0-.59,1.61,11.35,11.35,0,0,0-.33,1.69,13.12,13.12,0,0,0,0,3.2,11.57,11.57,0,0,0,.33,1.7,9.63,9.63,0,0,0,.59,1.61,5.5,5.5,0,0,0,.91,1.36,4.26,4.26,0,0,0,1.28.95,3.79,3.79,0,0,0,1.68.36,4,4,0,0,0,1.73-.35,4.16,4.16,0,0,0,1.3-.93,5.21,5.21,0,0,0,.9-1.35,9.13,9.13,0,0,0,.58-1.61,11.34,11.34,0,0,0,.31-1.7A16.07,16.07,0,0,0,948.3,187.94Z"/><path class="cls-5" d="M973.66,197.35h-6.47V174h12.68a11.23,11.23,0,0,1,3.15.44,8,8,0,0,1,2.66,1.32,6.56,6.56,0,0,1,1.85,2.22,6.75,6.75,0,0,1,.69,3.14,6.82,6.82,0,0,1-1.23,4,7.86,7.86,0,0,1-1.36,1.49,8.16,8.16,0,0,1-1.71,1.12,9.31,9.31,0,0,1-2,.7,9.13,9.13,0,0,1-2.09.24h-6.21Zm8-16.24a5.15,5.15,0,0,0-1.15-3.55,4.4,4.4,0,0,0-3.46-1.29h-3.41v10.14h3.41a5.05,5.05,0,0,0,2.11-.4,3.73,3.73,0,0,0,1.43-1.11,4.71,4.71,0,0,0,.81-1.68A8.09,8.09,0,0,0,981.67,181.11Z"/><path class="cls-5" d="M1007,180.26l-3.1,5.11q-.2-.65-.51-1.46a8.11,8.11,0,0,0-.77-1.52,4.58,4.58,0,0,0-1.09-1.18,2.37,2.37,0,0,0-1.47-.48,2.28,2.28,0,0,0-1.33.39,3.44,3.44,0,0,0-1,1,6.27,6.27,0,0,0-.64,1.41,11.85,11.85,0,0,0-.39,1.59,15.08,15.08,0,0,0-.19,1.54q0,.74,0,1.27v9.4H991V178.61h2.12l2.23,4.37a12.45,12.45,0,0,1,1-1.94,7.08,7.08,0,0,1,1.35-1.53,5.79,5.79,0,0,1,1.74-1,6.31,6.31,0,0,1,2.19-.36,10.66,10.66,0,0,1,1.42.11,8.29,8.29,0,0,1,1.53.36,6.28,6.28,0,0,1,1.39.66A3.1,3.1,0,0,1,1007,180.26Z"/><path class="cls-5" d="M1027,184.76a5.31,5.31,0,0,1-.37,2.05,5.16,5.16,0,0,1-1,1.58,6.11,6.11,0,0,1-1.49,1.15,9.64,9.64,0,0,1-1.81.77,11.5,11.5,0,0,1-2,.43,15.6,15.6,0,0,1-2,.13,17,17,0,0,1-2.41-.17,14.14,14.14,0,0,1-2.35-.54,9.62,9.62,0,0,0,.57,2,5.66,5.66,0,0,0,1,1.69,4.7,4.7,0,0,0,1.6,1.14,5.55,5.55,0,0,0,2.26.42,5.2,5.2,0,0,0,1.65-.26,5.26,5.26,0,0,0,1.43-.73,5.47,5.47,0,0,0,1.15-1.12,5.84,5.84,0,0,0,.81-1.44l2.38.88A6.81,6.81,0,0,1,1025,195a8.52,8.52,0,0,1-2.12,1.54,10.29,10.29,0,0,1-2.51.9,12.24,12.24,0,0,1-2.63.29,10.72,10.72,0,0,1-4-.72,9.14,9.14,0,0,1-5.21-5.12,10.75,10.75,0,0,1,0-7.89,9.14,9.14,0,0,1,5.21-5.12,10.72,10.72,0,0,1,4-.72,16.09,16.09,0,0,1,2.13.15,13,13,0,0,1,2.12.46,10.27,10.27,0,0,1,1.94.82,6.19,6.19,0,0,1,1.59,1.24,5.76,5.76,0,0,1,1.08,1.71A5.83,5.83,0,0,1,1027,184.76Zm-13.57,3.7q1,.23,2,.36a15.92,15.92,0,0,0,2,.13,9.25,9.25,0,0,0,2-.2,4.35,4.35,0,0,0,1.6-.68,3.32,3.32,0,0,0,1.07-1.27,4.47,4.47,0,0,0,.39-2,5.59,5.59,0,0,0-.26-1.75,3.73,3.73,0,0,0-.77-1.36,3.5,3.5,0,0,0-1.26-.88,4.46,4.46,0,0,0-1.74-.32,4,4,0,0,0-1.67.34,4.31,4.31,0,0,0-1.3.92,5.64,5.64,0,0,0-1,1.34,9.8,9.8,0,0,0-.66,1.59,10,10,0,0,0-.37,1.67,11.83,11.83,0,0,0-.11,1.59v.26A2,2,0,0,0,1013.38,188.46Z"/><path class="cls-5" d="M1037.48,197.35H1032V180.78h-3.42v-2.17H1032v-6.9h5.52v6.9h5.7v2.17h-5.7Z"/><path class="cls-5" d="M1064.8,187.94a9.35,9.35,0,0,1-.39,2.74,9.57,9.57,0,0,1-1.08,2.37,9.24,9.24,0,0,1-1.67,2,10.36,10.36,0,0,1-2.14,1.47,11.25,11.25,0,0,1-2.49.92,11.61,11.61,0,0,1-5.45,0,11.32,11.32,0,0,1-2.49-.92,10.38,10.38,0,0,1-2.14-1.47,9.28,9.28,0,0,1-1.67-2,9.58,9.58,0,0,1-1.08-2.38,9.75,9.75,0,0,1,0-5.47,9.58,9.58,0,0,1,1.08-2.38,9.28,9.28,0,0,1,1.67-2,10.38,10.38,0,0,1,2.14-1.47,11.38,11.38,0,0,1,5.21-1.25,11.46,11.46,0,0,1,2.73.32,11.25,11.25,0,0,1,2.49.92,10.36,10.36,0,0,1,2.14,1.47,9.24,9.24,0,0,1,1.67,2,9.53,9.53,0,0,1,1.08,2.38A9.38,9.38,0,0,1,1064.8,187.94Zm-5.61,0a16.3,16.3,0,0,0-.09-1.65,11.91,11.91,0,0,0-.3-1.7,8.83,8.83,0,0,0-.58-1.61,5.32,5.32,0,0,0-.91-1.35,4,4,0,0,0-3-1.27,3.79,3.79,0,0,0-1.68.36,4.26,4.26,0,0,0-1.28.95,5.45,5.45,0,0,0-.91,1.37,10,10,0,0,0-.59,1.61,11.34,11.34,0,0,0-.33,1.69,13.12,13.12,0,0,0,0,3.2,11.57,11.57,0,0,0,.33,1.7,9.63,9.63,0,0,0,.59,1.61,5.5,5.5,0,0,0,.91,1.36,4.26,4.26,0,0,0,1.28.95,3.79,3.79,0,0,0,1.68.36,4,4,0,0,0,1.73-.35,4.16,4.16,0,0,0,1.3-.93,5.21,5.21,0,0,0,.9-1.35,9.13,9.13,0,0,0,.58-1.61,11.34,11.34,0,0,0,.31-1.7A16.07,16.07,0,0,0,1059.19,187.94Z"/></g></g></svg>